<svg id="svg" version="1.1" xmlns="http://www.w3.org/2000/svg" xmlns:xlink="http://www.w3.org/1999/xlink" width="400" height="356.30252100840335" viewBox="0, 0, 400,356.30252100840335"><g id="svgg"><path id="path0" d="M212.617 8.824 C 212.663 19.352,212.441 21.487,211.238 22.035 C 210.597 22.327,210.201 23.065,209.585 25.113 C 208.941 27.258,208.636 27.807,208.088 27.807 C 207.536 27.807,207.482 27.907,207.817 28.311 C 208.136 28.695,208.136 28.875,207.816 29.072 C 207.521 29.254,207.477 29.926,207.667 31.332 C 208.202 35.285,208.184 35.339,205.639 37.827 C 202.930 40.474,200.202 42.922,193.898 48.361 C 188.836 52.729,183.347 57.611,181.571 59.328 C 180.945 59.933,179.545 61.230,178.460 62.210 C 177.375 63.191,175.206 65.276,173.640 66.845 C 172.074 68.414,170.514 69.938,170.175 70.232 C 167.284 72.739,165.121 75.567,163.534 78.916 L 161.821 82.531 161.961 86.096 C 162.077 89.090,162.273 90.061,163.181 92.157 C 163.775 93.529,164.457 95.492,164.696 96.517 C 164.935 97.543,165.585 99.010,166.141 99.777 C 166.696 100.544,167.551 101.961,168.040 102.926 C 168.528 103.890,169.191 104.897,169.511 105.163 C 169.832 105.429,170.515 106.382,171.030 107.280 C 171.544 108.178,172.666 109.715,173.524 110.695 C 176.885 114.540,178.824 116.671,179.635 117.410 C 180.101 117.834,182.627 120.267,185.247 122.816 C 193.374 130.722,193.785 130.981,195.013 128.966 C 196.258 126.923,195.421 123.372,193.227 121.390 C 192.793 120.998,192.116 120.036,191.724 119.251 C 191.332 118.467,190.555 117.344,189.997 116.756 C 189.440 116.168,188.736 115.091,188.432 114.363 C 188.129 113.635,187.420 112.512,186.858 111.867 C 186.296 111.223,185.501 110.035,185.092 109.228 C 184.683 108.420,183.934 107.269,183.429 106.668 C 182.924 106.067,182.198 104.669,181.816 103.560 C 181.435 102.451,180.597 100.635,179.955 99.524 L 178.788 97.504 178.788 91.800 C 178.788 86.099,178.788 86.095,179.856 84.314 C 180.443 83.333,181.282 81.670,181.720 80.618 C 182.783 78.062,188.558 71.690,195.009 65.956 C 207.547 54.810,212.745 49.780,215.276 46.346 C 215.782 45.660,216.803 44.420,217.545 43.591 C 218.287 42.762,218.896 41.880,218.898 41.630 C 218.900 41.381,219.453 40.483,220.126 39.636 C 220.800 38.789,221.625 37.345,221.961 36.428 C 222.678 34.469,223.293 33.738,224.970 32.847 C 225.655 32.484,226.572 31.535,227.032 30.713 C 227.523 29.838,228.208 29.147,228.711 29.020 C 229.178 28.903,229.754 28.575,229.990 28.290 C 230.299 27.917,230.489 27.888,230.672 28.184 C 231.093 28.866,231.455 23.374,231.425 16.745 C 231.393 9.438,230.664 5.959,229.036 5.340 C 228.556 5.158,228.164 4.738,228.164 4.407 C 228.164 4.076,227.883 2.950,227.540 1.905 L 226.916 0.005 219.747 0.003 L 212.578 0.000 212.617 8.824 M243.934 47.408 C 243.294 47.560,242.156 48.091,241.405 48.588 C 240.654 49.085,238.931 49.821,237.575 50.225 C 236.220 50.629,234.359 51.436,233.440 52.019 C 232.521 52.602,230.677 53.413,229.343 53.823 C 228.008 54.232,226.268 55.029,225.476 55.594 C 224.684 56.159,223.132 56.884,222.027 57.205 C 220.923 57.526,219.435 58.253,218.721 58.820 C 218.008 59.387,216.592 60.119,215.575 60.446 C 214.558 60.774,213.164 61.480,212.478 62.017 C 211.791 62.553,210.685 63.273,210.020 63.617 C 208.200 64.558,199.002 73.949,198.189 75.697 C 197.809 76.515,197.010 77.833,196.414 78.627 C 193.304 82.772,193.375 97.687,196.527 102.438 C 197.199 103.450,197.949 104.887,198.194 105.632 C 198.440 106.376,199.227 107.687,199.944 108.544 C 200.661 109.401,201.693 110.798,202.237 111.647 C 203.498 113.615,205.365 116.318,206.855 118.332 C 208.736 120.875,208.628 126.121,206.628 129.331 C 205.627 130.939,205.050 132.443,204.577 134.679 C 203.190 141.238,205.948 140.637,172.014 141.767 C 164.759 142.009,157.189 141.472,155.894 140.624 C 153.559 139.094,156.768 135.681,161.732 134.415 C 162.547 134.207,163.590 133.634,164.049 133.142 C 164.508 132.650,165.397 131.923,166.024 131.525 C 169.728 129.177,166.269 127.340,162.399 129.599 C 161.484 130.134,159.668 130.642,157.398 130.999 C 154.897 131.393,153.193 131.894,151.693 132.676 C 150.517 133.289,148.385 134.085,146.956 134.445 C 145.527 134.805,143.683 135.553,142.857 136.106 C 142.031 136.659,140.673 137.408,139.840 137.772 C 133.054 140.731,133.285 146.385,140.285 148.660 C 141.658 149.106,142.941 149.593,143.137 149.741 C 144.100 150.471,147.309 151.193,151.045 151.521 C 158.031 152.133,158.310 152.571,154.303 156.640 C 147.323 163.729,146.878 168.448,152.837 172.193 C 153.617 172.683,154.787 173.435,155.438 173.863 C 156.088 174.292,157.678 174.802,158.970 174.997 C 164.413 175.817,166.128 176.122,169.340 176.845 C 176.150 178.377,189.374 178.215,200.178 176.466 C 202.531 176.085,207.103 175.607,210.339 175.403 C 217.788 174.934,220.780 174.497,223.974 173.410 C 225.376 172.933,227.976 172.375,229.750 172.169 C 237.340 171.289,238.231 170.817,237.197 168.226 C 235.823 164.786,234.409 162.767,232.402 161.385 L 230.427 160.024 227.602 160.570 C 226.048 160.870,222.692 161.292,220.143 161.508 C 217.594 161.723,213.262 162.380,210.517 162.967 C 202.152 164.754,165.530 165.638,162.350 164.129 C 158.208 162.163,157.870 158.719,161.376 154.213 C 163.138 151.949,162.704 152.026,175.318 151.746 C 187.816 151.468,192.067 151.101,196.885 149.884 C 198.799 149.401,202.088 148.843,204.193 148.644 C 212.975 147.817,214.776 147.537,217.821 146.525 C 219.845 145.853,222.732 145.263,225.689 144.917 C 228.257 144.617,231.269 144.037,232.381 143.627 C 233.493 143.217,234.964 142.674,235.651 142.421 C 236.337 142.167,237.836 141.843,238.981 141.701 C 242.710 141.239,243.851 139.322,241.177 138.011 C 239.953 137.411,225.318 137.933,216.477 138.892 C 211.283 139.456,210.996 139.454,210.327 138.849 C 209.129 137.764,209.399 136.086,210.963 134.900 C 212.724 133.564,217.668 128.534,218.954 126.769 C 219.513 126.002,220.277 125.160,220.651 124.898 C 221.025 124.636,221.605 123.660,221.939 122.728 C 222.273 121.796,223.009 119.882,223.573 118.474 C 224.695 115.673,224.851 113.564,224.083 111.586 C 223.816 110.900,223.162 109.135,222.630 107.665 C 222.097 106.194,221.201 104.465,220.637 103.823 C 220.073 103.180,219.271 101.977,218.854 101.149 C 218.437 100.321,217.577 99.002,216.944 98.217 C 216.310 97.433,215.505 96.230,215.154 95.544 C 214.803 94.857,214.152 93.860,213.708 93.327 C 211.807 91.048,210.950 84.491,212.057 80.689 C 212.747 78.318,220.809 69.434,224.332 67.163 C 225.067 66.689,225.668 66.142,225.668 65.947 C 225.668 65.752,226.809 64.831,228.203 63.901 C 233.272 60.518,234.486 59.697,235.858 58.720 C 238.951 56.517,240.914 55.249,242.781 54.248 C 243.859 53.670,245.062 52.842,245.455 52.407 C 245.847 51.972,246.900 51.245,247.794 50.791 C 250.637 49.350,250.860 48.489,248.631 47.557 C 247.344 47.019,245.781 46.970,243.934 47.408 M257.990 127.288 C 251.221 127.715,249.521 128.461,249.448 131.039 C 249.389 133.115,250.181 133.506,255.866 134.205 C 263.804 135.183,263.966 135.232,266.480 137.439 C 269.682 140.251,270.552 145.596,268.545 150.134 C 267.565 152.350,257.028 162.943,253.667 165.091 C 252.876 165.596,251.998 166.291,251.716 166.634 C 251.434 166.976,250.391 167.663,249.399 168.160 C 248.406 168.656,247.254 169.374,246.838 169.755 C 246.423 170.135,245.219 170.892,244.164 171.436 C 238.058 174.585,245.909 176.516,252.624 173.517 C 254.171 172.825,256.388 172.053,257.550 171.799 C 258.768 171.533,260.403 170.828,261.412 170.135 C 262.374 169.473,263.829 168.696,264.646 168.409 C 265.463 168.121,266.693 167.436,267.380 166.886 C 268.066 166.336,269.189 165.599,269.875 165.249 C 271.975 164.177,278.453 158.110,279.399 156.328 C 279.712 155.740,280.418 154.697,280.968 154.011 C 281.710 153.085,282.255 151.586,283.076 148.206 L 284.183 143.649 283.485 141.611 C 283.102 140.490,282.676 138.890,282.539 138.056 C 282.062 135.151,275.945 128.852,272.772 127.998 C 271.548 127.668,263.452 126.857,262.567 126.975 C 262.371 127.001,260.311 127.142,257.990 127.288 M157.858 183.405 C 151.390 188.867,150.446 190.310,152.436 191.695 C 152.942 192.047,153.904 192.792,154.573 193.351 C 155.242 193.909,156.978 194.810,158.431 195.352 C 159.883 195.894,161.528 196.658,162.087 197.050 C 163.362 197.945,165.048 198.480,167.558 198.787 C 168.636 198.918,171.283 199.576,173.440 200.249 C 180.683 202.507,201.017 202.766,208.734 200.698 C 213.508 199.419,214.002 199.324,218.897 198.752 C 222.562 198.324,224.187 197.955,226.093 197.118 C 227.447 196.524,229.727 195.813,231.160 195.539 C 237.411 194.343,237.403 192.676,231.142 191.583 C 229.463 191.290,226.916 190.584,225.483 190.015 C 224.050 189.446,221.861 188.822,220.618 188.630 C 219.376 188.438,216.563 188.001,214.367 187.659 C 210.956 187.127,210.023 187.101,207.973 187.478 C 198.147 189.289,175.856 188.767,171.771 186.631 C 170.847 186.148,169.000 185.449,167.666 185.078 C 166.332 184.706,164.439 183.917,163.458 183.324 C 160.548 181.563,160.032 181.571,157.858 183.405 M128.565 198.616 C 126.903 198.815,124.734 199.387,123.248 200.020 C 121.868 200.607,119.677 201.329,118.380 201.624 C 117.083 201.919,115.603 202.436,115.090 202.774 C 108.444 207.143,108.209 207.382,106.743 211.276 L 105.835 213.688 106.780 215.912 C 107.991 218.760,110.792 221.518,113.051 222.085 C 114.580 222.469,117.080 223.292,119.977 224.366 C 121.613 224.972,127.138 225.655,130.735 225.696 C 134.418 225.737,135.386 226.227,140.717 230.749 C 141.815 231.680,142.901 232.442,143.130 232.442 C 143.359 232.442,144.337 233.008,145.303 233.700 C 146.269 234.392,148.182 235.297,149.554 235.712 C 150.927 236.127,152.932 236.902,154.011 237.433 C 156.401 238.612,156.896 238.735,161.155 239.216 C 163.010 239.425,166.132 239.997,168.093 240.486 C 175.454 242.322,189.829 242.320,198.850 240.481 C 201.257 239.990,205.325 239.419,207.890 239.212 C 213.357 238.770,215.320 238.390,218.228 237.208 C 219.403 236.731,222.079 236.101,224.175 235.809 C 228.602 235.192,228.679 235.172,231.729 233.865 C 233.023 233.311,235.664 232.620,237.709 232.302 C 240.204 231.913,242.045 231.391,243.487 230.663 C 244.777 230.012,246.887 229.374,248.897 229.027 C 251.051 228.655,253.020 228.041,254.583 227.254 C 255.991 226.545,257.979 225.896,259.414 225.676 C 260.863 225.454,262.868 224.796,264.349 224.057 C 265.722 223.373,268.020 222.589,269.457 222.316 C 271.033 222.016,272.739 221.403,273.757 220.770 C 274.686 220.193,276.224 219.455,277.176 219.131 C 281.937 217.509,280.945 215.076,275.662 215.416 C 273.462 215.558,272.365 215.852,270.232 216.875 C 267.955 217.967,266.950 218.217,263.458 218.561 C 260.407 218.862,258.857 219.200,257.398 219.885 C 255.248 220.894,245.989 221.578,245.989 220.728 C 245.989 220.309,246.868 220.128,251.515 219.594 C 255.645 219.119,255.742 219.084,256.809 217.686 C 257.491 216.791,258.231 216.360,259.866 215.901 C 261.062 215.565,262.769 214.726,263.700 214.015 C 264.623 213.311,266.014 212.396,266.791 211.982 C 269.148 210.728,272.030 205.299,271.323 203.446 C 271.028 202.673,268.115 200.357,267.438 200.357 C 267.240 200.357,266.704 200.840,266.248 201.432 C 263.805 204.600,263.829 204.581,261.752 205.020 C 260.632 205.257,258.619 205.995,257.280 206.661 C 255.395 207.598,253.944 207.997,250.863 208.425 C 248.672 208.729,245.263 209.518,243.287 210.179 C 240.442 211.130,238.696 211.461,234.909 211.764 C 228.859 212.249,228.016 212.373,223.886 213.384 C 217.950 214.837,215.588 215.002,197.861 215.210 C 163.159 215.616,140.040 214.354,135.651 211.814 C 133.359 210.488,134.489 207.435,137.978 205.526 C 139.053 204.938,140.637 203.935,141.499 203.298 C 142.361 202.660,143.242 202.138,143.458 202.137 C 145.335 202.128,147.720 200.743,147.381 199.860 C 146.835 198.439,136.019 197.724,128.565 198.616 M240.791 222.320 C 242.996 223.166,240.232 224.438,235.080 224.949 C 229.688 225.483,227.325 225.918,224.365 226.919 C 221.399 227.923,218.082 228.341,208.760 228.886 C 205.049 229.104,199.434 229.659,196.282 230.121 C 178.038 232.793,157.063 231.799,149.588 227.907 L 148.485 227.333 149.554 226.890 C 151.006 226.289,156.016 226.069,177.540 225.663 C 197.200 225.292,200.645 225.075,209.257 223.660 C 216.083 222.539,238.841 221.571,240.791 222.320 M129.550 241.226 C 129.136 241.317,128.334 241.875,127.767 242.465 L 126.738 243.539 126.563 249.666 C 126.385 255.939,126.367 281.013,126.532 292.513 L 126.625 298.930 125.232 304.317 C 123.752 310.035,123.865 309.824,119.875 314.398 C 117.321 317.326,117.070 318.399,118.587 319.916 C 120.325 321.654,124.927 320.650,127.466 317.980 C 128.046 317.370,128.946 316.648,129.466 316.376 C 129.987 316.104,130.778 315.276,131.225 314.536 C 131.672 313.796,132.483 312.671,133.027 312.037 C 135.428 309.236,135.829 303.273,135.829 270.347 L 135.829 243.840 134.670 242.594 C 133.494 241.329,131.501 240.796,129.550 241.226 M250.446 256.558 C 250.053 256.660,248.449 257.122,246.881 257.585 C 245.312 258.047,243.226 258.535,242.246 258.668 C 238.410 259.191,237.195 260.249,237.822 262.519 C 238.524 265.061,239.982 265.330,245.098 263.860 C 253.308 261.501,261.364 264.672,261.737 270.410 C 261.995 274.398,261.470 275.013,256.860 276.120 C 254.901 276.591,252.456 277.303,251.426 277.702 C 250.397 278.102,248.092 278.665,246.304 278.954 C 242.916 279.502,241.965 279.927,238.664 282.365 C 234.568 285.391,233.275 291.182,235.125 298.217 C 235.882 301.100,236.309 301.660,239.146 303.495 C 243.585 306.367,247.470 306.657,252.774 304.511 C 258.041 302.381,260.837 302.310,265.005 304.199 C 267.792 305.462,267.975 305.418,269.819 303.014 L 271.011 301.462 270.845 285.579 C 270.597 261.912,270.262 260.940,261.319 257.939 C 257.295 256.588,252.604 255.992,250.446 256.558 M158.861 257.943 C 157.312 258.203,154.826 258.520,153.335 258.647 C 148.422 259.065,147.304 259.807,147.766 262.337 C 148.332 265.439,149.297 265.789,153.166 264.295 C 156.698 262.930,163.475 262.652,165.809 263.775 C 170.254 265.914,171.139 267.082,171.393 271.148 C 171.630 274.961,171.113 275.597,167.257 276.234 C 165.826 276.471,163.675 277.062,162.478 277.548 C 161.282 278.034,158.830 278.669,157.030 278.959 C 153.104 279.591,153.062 279.607,149.911 281.699 C 144.951 284.991,144.276 286.306,144.267 292.692 C 144.257 299.218,145.231 300.959,150.775 304.317 L 153.064 305.704 157.591 305.704 L 162.117 305.704 165.195 304.122 C 169.467 301.927,171.650 301.764,174.844 303.402 L 177.129 304.574 178.768 303.948 C 181.687 302.833,181.937 299.936,181.139 276.471 L 180.860 268.271 179.370 264.486 C 177.560 259.889,177.368 259.705,173.048 258.421 C 169.108 257.250,164.014 257.078,158.861 257.943 M189.319 258.891 C 188.265 260.022,188.411 261.692,189.808 264.466 C 190.585 266.008,191.219 268.008,191.563 269.998 C 191.900 271.954,192.517 273.916,193.220 275.265 C 193.975 276.716,194.508 278.481,194.858 280.687 C 195.204 282.869,195.744 284.667,196.481 286.089 C 197.220 287.516,197.805 289.470,198.251 291.995 C 199.364 298.294,201.906 303.071,204.991 304.658 C 207.984 306.198,213.769 304.642,215.021 301.961 C 215.341 301.275,216.258 299.349,217.059 297.683 C 217.859 296.016,218.614 294.011,218.735 293.226 C 218.857 292.442,219.576 290.517,220.333 288.948 C 221.237 287.076,221.884 285.053,222.218 283.058 C 222.500 281.372,223.213 278.980,223.818 277.685 C 224.593 276.027,225.069 274.207,225.459 271.411 C 225.880 268.392,226.302 266.860,227.265 264.851 C 229.658 259.857,228.758 258.318,223.566 258.520 C 219.243 258.688,218.958 258.972,218.298 263.773 C 217.987 266.038,217.412 268.277,216.730 269.878 C 215.990 271.619,215.480 273.706,215.094 276.578 C 214.714 279.411,214.195 281.549,213.477 283.244 C 212.896 284.617,212.190 286.929,211.909 288.383 C 210.616 295.067,206.848 291.563,205.216 282.158 C 204.926 280.487,204.244 278.349,203.583 277.042 C 202.832 275.553,202.275 273.695,201.932 271.533 C 201.593 269.394,201.046 267.558,200.343 266.200 C 199.753 265.061,199.102 263.343,198.896 262.382 C 198.090 258.623,191.729 256.304,189.319 258.891 M170.881 283.859 C 171.502 284.692,171.606 285.373,171.611 288.672 C 171.619 293.769,171.232 294.840,168.875 296.244 C 167.856 296.851,166.462 297.703,165.775 298.139 C 163.984 299.275,158.146 299.309,156.623 298.191 C 155.476 297.350,153.431 293.803,153.088 292.061 C 152.612 289.636,154.835 286.024,157.932 284.193 C 160.939 282.415,169.637 282.191,170.881 283.859 M261.012 283.392 C 263.198 285.165,262.037 293.098,259.220 295.643 C 253.170 301.109,247.013 300.469,243.232 293.982 C 240.969 290.101,245.646 283.791,251.328 283.057 C 255.626 282.502,260.106 282.657,261.012 283.392 M120.588 325.379 C 120.931 325.469,121.493 325.469,121.836 325.379 C 122.179 325.290,121.898 325.216,121.212 325.216 C 120.526 325.216,120.245 325.290,120.588 325.379 " stroke="none" fill="#f0f1f1" fill-rule="evenodd"></path><path id="path1" d="M116.756 28.061 C 114.052 28.431,113.100 28.874,112.645 29.973 C 112.345 30.697,111.747 31.243,110.869 31.594 C 109.386 32.188,109.000 32.834,108.398 35.730 C 108.041 37.450,107.838 37.784,106.960 38.090 C 105.717 38.523,105.320 39.211,104.974 41.533 C 104.756 43.000,104.434 43.579,103.157 44.806 C 102.100 45.821,101.604 46.595,101.604 47.229 C 101.604 47.890,101.295 48.339,100.543 48.769 C 99.689 49.257,99.323 49.889,98.671 52.002 C 98.071 53.948,97.658 54.705,97.077 54.927 C 95.926 55.367,95.218 56.666,94.783 59.132 C 94.521 60.618,94.234 61.319,93.885 61.319 C 92.987 61.319,91.712 62.939,91.466 64.394 C 91.306 65.345,90.981 65.912,90.462 66.144 C 90.034 66.337,89.566 67.000,89.401 67.647 C 89.239 68.284,88.963 68.806,88.788 68.806 C 88.613 68.806,88.362 69.327,88.230 69.964 C 88.090 70.639,87.476 71.569,86.758 72.193 C 85.763 73.055,85.421 73.722,84.985 75.642 C 84.508 77.748,84.326 78.063,83.397 78.387 C 82.266 78.781,81.774 79.709,81.423 82.106 C 81.254 83.261,80.849 83.936,79.640 85.077 C 78.617 86.042,78.075 86.857,78.075 87.428 C 78.075 88.275,77.114 89.483,76.441 89.483 C 76.109 89.483,74.510 93.672,74.510 94.543 C 74.510 94.802,74.012 95.234,73.403 95.503 C 72.168 96.050,71.519 97.317,71.145 99.911 C 71.011 100.842,70.763 101.604,70.594 101.604 C 69.746 101.604,68.137 103.497,67.926 104.742 C 67.776 105.634,67.442 106.201,66.933 106.430 C 66.505 106.622,66.036 107.285,65.872 107.932 C 65.709 108.570,65.440 109.091,65.273 109.091 C 65.106 109.091,64.787 109.813,64.565 110.695 C 64.325 111.649,63.957 112.299,63.657 112.299 C 62.813 112.299,61.772 113.978,61.503 115.771 C 61.199 117.800,60.757 118.717,60.085 118.717 C 59.243 118.717,58.205 120.406,57.951 122.188 C 57.751 123.585,57.428 124.147,56.127 125.362 C 55.129 126.294,54.543 127.149,54.540 127.680 C 54.533 128.725,54.233 129.188,53.214 129.724 C 52.651 130.021,52.181 130.922,51.610 132.798 C 50.930 135.032,50.640 135.521,49.778 135.881 C 48.598 136.373,47.960 137.689,47.600 140.374 C 47.406 141.815,47.206 142.246,46.731 142.246 C 45.792 142.246,44.651 143.687,44.366 145.233 C 44.194 146.163,43.886 146.675,43.427 146.795 C 43.031 146.898,42.659 147.399,42.541 147.988 C 42.430 148.547,42.118 149.186,41.849 149.410 C 41.580 149.633,41.190 150.446,40.983 151.216 C 40.739 152.123,40.327 152.722,39.814 152.917 C 38.820 153.295,38.292 154.344,37.783 156.952 C 37.512 158.340,37.213 159.002,36.857 159.002 C 35.814 159.002,34.670 160.621,34.418 162.455 C 34.254 163.648,33.884 164.526,33.304 165.098 C 32.826 165.568,32.115 166.265,31.725 166.645 C 31.335 167.025,31.014 167.667,31.011 168.071 C 31.004 169.004,30.678 169.487,29.714 169.994 C 26.568 171.649,26.715 184.208,29.909 186.707 C 30.629 187.271,31.016 187.890,31.016 188.478 C 31.016 189.085,31.531 189.867,32.585 190.859 C 33.897 192.094,34.194 192.626,34.403 194.118 C 34.725 196.426,35.123 197.125,36.362 197.557 C 37.205 197.851,37.443 198.218,37.787 199.757 C 38.428 202.623,38.791 203.339,39.936 203.994 C 40.520 204.328,41.001 204.890,41.003 205.242 C 41.006 205.594,41.242 206.283,41.527 206.774 C 41.812 207.264,42.221 208.090,42.436 208.610 C 42.650 209.129,43.119 209.631,43.478 209.725 C 43.922 209.841,44.211 210.381,44.387 211.422 C 44.655 213.008,45.902 214.617,46.864 214.617 C 47.167 214.617,47.416 214.737,47.417 214.884 C 47.440 217.803,48.597 220.461,50.095 221.034 C 50.589 221.223,51.070 222.104,51.633 223.852 C 52.187 225.573,52.731 226.578,53.317 226.962 C 53.801 227.279,54.344 228.129,54.549 228.892 C 54.791 229.788,55.388 230.628,56.294 231.345 C 57.510 232.308,57.701 232.672,57.922 234.446 C 58.173 236.454,59.326 238.146,60.444 238.146 C 60.693 238.146,61.078 238.978,61.310 240.018 C 61.958 242.910,62.319 243.623,63.466 244.279 C 64.183 244.689,64.528 245.166,64.528 245.746 C 64.528 246.219,64.848 247.014,65.241 247.513 C 65.633 248.011,65.954 248.588,65.954 248.795 C 65.954 249.001,66.315 249.505,66.756 249.915 C 67.197 250.325,67.799 251.414,68.093 252.335 C 68.500 253.611,68.897 254.138,69.760 254.545 C 70.777 255.026,70.935 255.315,71.297 257.372 C 71.797 260.209,72.082 260.756,73.338 261.279 C 74.132 261.611,74.470 262.141,75.021 263.913 C 75.443 265.269,76.111 266.509,76.740 267.101 C 77.306 267.634,77.923 268.627,78.111 269.308 C 78.320 270.063,78.988 270.969,79.827 271.634 C 81.039 272.594,81.230 272.958,81.452 274.733 C 81.710 276.798,82.798 278.431,83.915 278.431 C 84.269 278.431,84.578 279.102,84.859 280.481 C 85.405 283.150,85.902 284.147,86.873 284.516 C 87.386 284.711,87.797 285.310,88.042 286.217 C 88.249 286.987,88.658 287.816,88.951 288.059 C 89.244 288.302,89.483 288.798,89.483 289.162 C 89.483 289.526,89.868 290.075,90.338 290.383 C 90.867 290.730,91.285 291.445,91.436 292.263 C 91.711 293.752,92.865 295.187,93.787 295.187 C 94.265 295.187,94.493 295.713,94.816 297.568 C 95.325 300.496,95.604 301.038,96.867 301.564 C 97.691 301.907,98.004 302.438,98.699 304.667 C 99.339 306.721,99.742 307.450,100.403 307.751 C 101.005 308.025,101.389 308.622,101.663 309.711 C 101.922 310.739,102.378 311.481,102.989 311.873 C 104.532 312.859,104.717 313.156,104.981 315.076 C 105.261 317.112,106.287 318.717,107.309 318.717 C 107.831 318.717,108.054 319.149,108.365 320.766 C 108.937 323.738,109.473 324.506,111.463 325.207 C 113.072 325.774,118.982 325.817,197.783 325.831 C 291.013 325.848,284.621 326.006,285.086 323.680 C 285.237 322.924,285.688 322.329,286.450 321.880 C 287.810 321.077,288.335 320.034,288.632 317.545 C 288.837 315.827,288.955 315.638,290.199 315.052 C 291.508 314.434,291.963 313.674,291.974 312.087 C 291.976 311.677,292.298 311.051,292.688 310.698 C 293.701 309.782,295.187 307.138,295.187 306.252 C 295.187 305.773,295.636 305.237,296.427 304.771 C 297.682 304.030,298.129 303.081,298.618 300.115 C 298.786 299.101,299.072 298.706,299.880 298.372 C 301.177 297.834,301.799 296.650,302.114 294.118 C 302.332 292.363,302.477 292.101,303.496 291.622 C 304.370 291.212,304.769 290.681,305.214 289.340 C 305.533 288.378,306.109 287.336,306.494 287.022 C 307.260 286.400,308.489 284.132,308.846 282.686 C 308.970 282.182,309.489 281.547,309.999 281.275 C 311.047 280.714,311.785 279.196,312.130 276.891 C 312.329 275.565,312.549 275.236,313.561 274.753 C 314.791 274.167,315.197 273.288,315.688 270.143 C 315.845 269.137,316.154 268.674,316.939 268.268 C 318.099 267.668,318.717 266.742,318.717 265.600 C 318.717 265.184,319.188 264.412,319.763 263.884 C 320.847 262.889,322.282 259.990,322.282 258.794 C 322.282 258.418,322.500 258.111,322.768 258.111 C 323.630 258.111,325.052 256.344,325.287 254.980 C 325.819 251.882,325.879 251.752,326.941 251.382 C 328.121 250.970,328.646 249.908,328.956 247.297 C 329.137 245.782,329.326 245.471,330.528 244.712 C 331.382 244.173,331.975 243.483,332.112 242.870 C 332.547 240.915,332.668 240.675,333.317 240.469 C 334.071 240.229,334.876 238.697,335.528 236.260 C 335.775 235.336,336.146 234.581,336.352 234.581 C 337.417 234.581,338.633 232.769,338.877 230.821 C 339.014 229.721,339.365 228.634,339.656 228.404 C 341.667 226.818,342.246 226.025,342.246 224.857 C 342.246 224.097,342.550 223.287,343.048 222.720 C 345.099 220.383,345.443 219.852,345.662 218.689 C 345.821 217.840,346.196 217.288,346.839 216.956 C 347.771 216.474,348.240 215.524,349.010 212.567 C 349.232 211.712,349.617 211.052,349.893 211.052 C 350.940 211.052,352.148 209.002,352.404 206.790 C 352.585 205.238,352.802 204.635,353.182 204.635 C 354.226 204.635,355.793 202.630,355.793 201.295 C 355.793 200.515,356.029 199.864,356.417 199.575 C 357.409 198.834,358.967 196.343,359.215 195.100 C 359.352 194.414,359.720 193.873,360.138 193.740 C 360.893 193.500,362.206 191.594,362.211 190.731 C 362.218 189.564,362.983 187.522,363.413 187.522 C 366.858 187.522,367.237 171.407,363.839 169.402 C 362.920 168.860,362.622 168.402,362.438 167.249 C 362.107 165.180,361.184 163.414,360.200 162.966 C 359.737 162.755,359.358 162.280,359.358 161.911 C 359.358 161.542,358.957 160.649,358.467 159.927 C 357.977 159.205,357.576 158.467,357.576 158.287 C 357.576 158.108,357.195 157.594,356.729 157.145 C 356.247 156.679,355.791 155.718,355.669 154.911 C 355.450 153.459,354.362 152.251,353.258 152.236 C 352.827 152.230,352.624 151.729,352.449 150.237 C 352.156 147.743,351.397 146.241,350.289 145.963 C 349.605 145.791,349.345 145.375,349.000 143.908 C 348.418 141.432,347.727 140.152,346.726 139.696 C 346.168 139.442,345.826 138.913,345.694 138.100 C 345.508 136.950,344.897 135.959,343.048 133.807 C 342.607 133.293,342.246 132.506,342.246 132.057 C 342.246 130.613,341.609 129.505,340.496 129.012 C 339.565 128.600,339.355 128.251,339.030 126.565 C 338.480 123.725,338.084 122.977,336.891 122.526 C 336.307 122.306,335.829 121.874,335.829 121.566 C 335.829 120.640,334.531 117.251,333.938 116.626 C 333.633 116.305,333.132 115.836,332.824 115.583 C 332.516 115.330,332.264 114.734,332.264 114.258 C 332.264 113.783,331.785 112.867,331.200 112.223 C 330.615 111.579,329.911 110.788,329.634 110.466 C 329.357 110.143,329.015 109.195,328.874 108.358 C 328.609 106.792,327.360 105.169,326.420 105.169 C 326.061 105.169,325.811 104.625,325.644 103.476 C 325.258 100.828,324.524 99.305,323.432 98.886 C 322.638 98.581,322.341 98.098,321.813 96.253 C 321.346 94.622,320.826 93.682,319.942 92.872 C 319.130 92.128,318.717 91.427,318.717 90.795 C 318.717 89.860,318.343 89.381,316.615 88.101 C 315.963 87.618,315.695 86.970,315.476 85.356 C 315.189 83.236,314.066 81.640,312.860 81.640 C 312.567 81.640,312.304 80.978,312.158 79.878 C 311.814 77.284,311.051 75.701,310.020 75.442 C 309.332 75.270,309.022 74.817,308.589 73.351 C 307.903 71.028,306.779 69.162,306.066 69.162 C 305.761 69.162,305.526 68.847,305.526 68.438 C 305.526 67.234,304.508 65.187,303.820 65.007 C 302.914 64.771,302.350 63.733,301.950 61.572 C 301.608 59.723,300.380 58.111,299.313 58.111 C 299.017 58.111,298.753 57.423,298.596 56.243 C 298.266 53.751,297.471 52.164,296.422 51.900 C 295.789 51.741,295.465 51.298,295.163 50.177 C 294.585 48.033,293.521 46.077,292.690 45.632 C 292.236 45.389,291.979 44.886,291.979 44.242 C 291.979 43.151,290.780 41.355,290.052 41.355 C 289.452 41.355,288.925 40.195,288.353 37.611 C 287.938 35.740,287.733 35.406,286.715 34.938 C 286.015 34.616,285.461 34.048,285.324 33.512 C 284.952 32.058,283.342 29.279,282.736 29.046 C 279.820 27.925,277.103 27.807,254.166 27.807 C 235.887 27.807,231.015 27.901,231.011 28.253 C 231.006 28.596,230.938 28.593,230.712 28.236 C 230.475 27.863,230.335 27.874,229.990 28.290 C 229.754 28.575,229.178 28.903,228.711 29.020 C 228.208 29.147,227.523 29.838,227.032 30.713 C 226.572 31.535,225.655 32.484,224.970 32.847 C 223.293 33.738,222.678 34.469,221.961 36.428 C 221.625 37.345,220.800 38.789,220.126 39.636 C 219.453 40.483,218.900 41.381,218.898 41.630 C 218.896 41.880,218.287 42.762,217.545 43.591 C 216.803 44.420,215.782 45.660,215.276 46.346 C 212.745 49.780,207.547 54.810,195.009 65.956 C 188.558 71.690,182.783 78.062,181.720 80.618 C 181.282 81.670,180.443 83.333,179.856 84.314 C 178.788 86.095,178.788 86.099,178.788 91.800 L 178.788 97.504 179.955 99.524 C 180.597 100.635,181.435 102.451,181.816 103.560 C 182.198 104.669,182.924 106.067,183.429 106.668 C 183.934 107.269,184.683 108.420,185.092 109.228 C 185.501 110.035,186.296 111.223,186.858 111.867 C 187.420 112.512,188.129 113.635,188.432 114.363 C 188.736 115.091,189.440 116.168,189.997 116.756 C 190.555 117.344,191.332 118.467,191.724 119.251 C 192.116 120.036,192.793 120.998,193.227 121.390 C 195.421 123.372,196.258 126.923,195.013 128.966 C 193.785 130.981,193.374 130.722,185.247 122.816 C 182.627 120.267,180.101 117.834,179.635 117.410 C 178.824 116.671,176.885 114.540,173.524 110.695 C 172.666 109.715,171.544 108.178,171.030 107.280 C 170.515 106.382,169.832 105.429,169.511 105.163 C 169.191 104.897,168.528 103.890,168.040 102.926 C 167.551 101.961,166.696 100.544,166.141 99.777 C 165.585 99.010,164.935 97.543,164.696 96.517 C 164.457 95.492,163.775 93.529,163.181 92.157 C 162.273 90.061,162.077 89.090,161.961 86.096 L 161.821 82.531 163.534 78.916 C 165.121 75.567,167.284 72.739,170.175 70.232 C 170.514 69.938,172.074 68.414,173.640 66.845 C 175.206 65.276,177.375 63.191,178.460 62.210 C 179.545 61.230,180.945 59.933,181.571 59.328 C 183.347 57.611,188.836 52.729,193.898 48.361 C 200.202 42.922,202.930 40.474,205.639 37.827 C 208.184 35.339,208.202 35.285,207.667 31.332 C 207.477 29.926,207.521 29.254,207.816 29.072 C 208.136 28.875,208.136 28.695,207.817 28.311 C 207.421 27.833,120.166 27.594,116.756 28.061 M248.631 47.557 C 250.860 48.489,250.637 49.350,247.794 50.791 C 246.900 51.245,245.847 51.972,245.455 52.407 C 245.062 52.842,243.859 53.670,242.781 54.248 C 240.914 55.249,238.951 56.517,235.858 58.720 C 234.486 59.697,233.272 60.518,228.203 63.901 C 226.809 64.831,225.668 65.752,225.668 65.947 C 225.668 66.142,225.067 66.689,224.332 67.163 C 220.809 69.434,212.747 78.318,212.057 80.689 C 210.950 84.491,211.807 91.048,213.708 93.327 C 214.152 93.860,214.803 94.857,215.154 95.544 C 215.505 96.230,216.310 97.433,216.944 98.217 C 217.577 99.002,218.437 100.321,218.854 101.149 C 219.271 101.977,220.073 103.180,220.637 103.823 C 221.201 104.465,222.097 106.194,222.630 107.665 C 223.162 109.135,223.816 110.900,224.083 111.586 C 224.851 113.564,224.695 115.673,223.573 118.474 C 223.009 119.882,222.273 121.796,221.939 122.728 C 221.605 123.660,221.025 124.636,220.651 124.898 C 220.277 125.160,219.513 126.002,218.954 126.769 C 217.668 128.534,212.724 133.564,210.963 134.900 C 209.399 136.086,209.129 137.764,210.327 138.849 C 210.996 139.454,211.283 139.456,216.477 138.892 C 225.318 137.933,239.953 137.411,241.177 138.011 C 243.851 139.322,242.710 141.239,238.981 141.701 C 237.836 141.843,236.337 142.167,235.651 142.421 C 234.964 142.674,233.493 143.217,232.381 143.627 C 231.269 144.037,228.257 144.617,225.689 144.917 C 222.732 145.263,219.845 145.853,217.821 146.525 C 214.776 147.537,212.975 147.817,204.193 148.644 C 202.088 148.843,198.799 149.401,196.885 149.884 C 192.067 151.101,187.816 151.468,175.318 151.746 C 162.704 152.026,163.138 151.949,161.376 154.213 C 157.870 158.719,158.208 162.163,162.350 164.129 C 165.530 165.638,202.152 164.754,210.517 162.967 C 213.262 162.380,217.594 161.723,220.143 161.508 C 222.692 161.292,226.048 160.870,227.602 160.570 L 230.427 160.024 232.402 161.385 C 234.409 162.767,235.823 164.786,237.197 168.226 C 238.231 170.817,237.340 171.289,229.750 172.169 C 227.976 172.375,225.376 172.933,223.974 173.410 C 220.780 174.497,217.788 174.934,210.339 175.403 C 207.103 175.607,202.531 176.085,200.178 176.466 C 189.374 178.215,176.150 178.377,169.340 176.845 C 166.128 176.122,164.413 175.817,158.970 174.997 C 157.678 174.802,156.088 174.292,155.438 173.863 C 154.787 173.435,153.617 172.683,152.837 172.193 C 146.878 168.448,147.323 163.729,154.303 156.640 C 158.310 152.571,158.031 152.133,151.045 151.521 C 147.309 151.193,144.100 150.471,143.137 149.741 C 142.941 149.593,141.658 149.106,140.285 148.660 C 133.285 146.385,133.054 140.731,139.840 137.772 C 140.673 137.408,142.031 136.659,142.857 136.106 C 143.683 135.553,145.527 134.805,146.956 134.445 C 148.385 134.085,150.517 133.289,151.693 132.676 C 153.193 131.894,154.897 131.393,157.398 130.999 C 159.668 130.642,161.484 130.134,162.399 129.599 C 166.269 127.340,169.728 129.177,166.024 131.525 C 165.397 131.923,164.508 132.650,164.049 133.142 C 163.590 133.634,162.547 134.207,161.732 134.415 C 156.768 135.681,153.559 139.094,155.894 140.624 C 157.189 141.472,164.759 142.009,172.014 141.767 C 205.948 140.637,203.190 141.238,204.577 134.679 C 205.050 132.443,205.627 130.939,206.628 129.331 C 208.628 126.121,208.736 120.875,206.855 118.332 C 205.365 116.318,203.498 113.615,202.237 111.647 C 201.693 110.798,200.661 109.401,199.944 108.544 C 199.227 107.687,198.440 106.376,198.194 105.632 C 197.949 104.887,197.199 103.450,196.527 102.438 C 193.375 97.687,193.304 82.772,196.414 78.627 C 197.010 77.833,197.809 76.515,198.189 75.697 C 199.002 73.949,208.200 64.558,210.020 63.617 C 210.685 63.273,211.791 62.553,212.478 62.017 C 213.164 61.480,214.558 60.774,215.575 60.446 C 216.592 60.119,218.008 59.387,218.721 58.820 C 219.435 58.253,220.923 57.526,222.027 57.205 C 223.132 56.884,224.684 56.159,225.476 55.594 C 226.268 55.029,228.008 54.232,229.343 53.823 C 230.677 53.413,232.521 52.602,233.440 52.019 C 234.359 51.436,236.220 50.629,237.575 50.225 C 238.931 49.821,240.654 49.085,241.405 48.588 C 243.663 47.093,246.539 46.683,248.631 47.557 M267.165 127.279 C 269.499 127.472,272.022 127.796,272.772 127.998 C 275.945 128.852,282.062 135.151,282.539 138.056 C 282.676 138.890,283.102 140.490,283.485 141.611 L 284.183 143.649 283.076 148.206 C 282.255 151.586,281.710 153.085,280.968 154.011 C 280.418 154.697,279.712 155.740,279.399 156.328 C 278.453 158.110,271.975 164.177,269.875 165.249 C 269.189 165.599,268.066 166.336,267.380 166.886 C 266.693 167.436,265.463 168.121,264.646 168.409 C 263.829 168.696,262.374 169.473,261.412 170.135 C 260.403 170.828,258.768 171.533,257.550 171.799 C 256.388 172.053,254.171 172.825,252.624 173.517 C 245.909 176.516,238.058 174.585,244.164 171.436 C 245.219 170.892,246.423 170.135,246.838 169.755 C 247.254 169.374,248.406 168.656,249.399 168.160 C 250.391 167.663,251.434 166.976,251.716 166.634 C 251.998 166.291,252.876 165.596,253.667 165.091 C 257.028 162.943,267.565 152.350,268.545 150.134 C 270.552 145.596,269.682 140.251,266.480 137.439 C 263.966 135.232,263.804 135.183,255.866 134.205 C 250.181 133.506,249.389 133.115,249.448 131.039 C 249.521 128.461,251.221 127.715,257.990 127.288 C 260.311 127.142,262.371 127.001,262.567 126.975 C 262.763 126.949,264.832 127.086,267.165 127.279 M163.458 183.324 C 164.439 183.917,166.332 184.706,167.666 185.078 C 169.000 185.449,170.847 186.148,171.771 186.631 C 175.856 188.767,198.147 189.289,207.973 187.478 C 210.023 187.101,210.956 187.127,214.367 187.659 C 216.563 188.001,219.376 188.438,220.618 188.630 C 221.861 188.822,224.050 189.446,225.483 190.015 C 226.916 190.584,229.463 191.290,231.142 191.583 C 237.403 192.676,237.411 194.343,231.160 195.539 C 229.727 195.813,227.447 196.524,226.093 197.118 C 224.187 197.955,222.562 198.324,218.897 198.752 C 214.002 199.324,213.508 199.419,208.734 200.698 C 201.017 202.766,180.683 202.507,173.440 200.249 C 171.283 199.576,168.636 198.918,167.558 198.787 C 165.048 198.480,163.362 197.945,162.087 197.050 C 161.528 196.658,159.883 195.894,158.431 195.352 C 156.978 194.810,155.242 193.909,154.573 193.351 C 153.904 192.792,152.942 192.047,152.436 191.695 C 150.446 190.310,151.390 188.867,157.858 183.405 C 160.032 181.571,160.548 181.563,163.458 183.324 M146.237 198.905 C 148.439 200.001,146.616 202.121,143.458 202.137 C 143.242 202.138,142.361 202.660,141.499 203.298 C 140.637 203.935,139.053 204.938,137.978 205.526 C 134.489 207.435,133.359 210.488,135.651 211.814 C 140.040 214.354,163.159 215.616,197.861 215.210 C 215.588 215.002,217.950 214.837,223.886 213.384 C 228.016 212.373,228.859 212.249,234.909 211.764 C 238.696 211.461,240.442 211.130,243.287 210.179 C 245.263 209.518,248.672 208.729,250.863 208.425 C 253.944 207.997,255.395 207.598,257.280 206.661 C 258.619 205.995,260.632 205.257,261.752 205.020 C 263.829 204.581,263.805 204.600,266.248 201.432 C 268.005 199.154,272.103 202.459,271.268 205.480 C 270.622 207.821,268.315 211.171,266.791 211.982 C 266.014 212.396,264.623 213.311,263.700 214.015 C 262.769 214.726,261.062 215.565,259.866 215.901 C 258.231 216.360,257.491 216.791,256.809 217.686 C 255.742 219.084,255.645 219.119,251.515 219.594 C 246.868 220.128,245.989 220.309,245.989 220.728 C 245.989 221.578,255.248 220.894,257.398 219.885 C 258.857 219.200,260.407 218.862,263.458 218.561 C 266.950 218.217,267.955 217.967,270.232 216.875 C 272.365 215.852,273.462 215.558,275.662 215.416 C 280.945 215.076,281.937 217.509,277.176 219.131 C 276.224 219.455,274.686 220.193,273.757 220.770 C 272.739 221.403,271.033 222.016,269.457 222.316 C 268.020 222.589,265.722 223.373,264.349 224.057 C 262.868 224.796,260.863 225.454,259.414 225.676 C 257.979 225.896,255.991 226.545,254.583 227.254 C 253.020 228.041,251.051 228.655,248.897 229.027 C 246.887 229.374,244.777 230.012,243.487 230.663 C 242.045 231.391,240.204 231.913,237.709 232.302 C 235.664 232.620,233.023 233.311,231.729 233.865 C 228.679 235.172,228.602 235.192,224.175 235.809 C 222.079 236.101,219.403 236.731,218.228 237.208 C 215.320 238.390,213.357 238.770,207.890 239.212 C 205.325 239.419,201.257 239.990,198.850 240.481 C 189.829 242.320,175.454 242.322,168.093 240.486 C 166.132 239.997,163.010 239.425,161.155 239.216 C 156.896 238.735,156.401 238.612,154.011 237.433 C 152.932 236.902,150.927 236.127,149.554 235.712 C 148.182 235.297,146.269 234.392,145.303 233.700 C 144.337 233.008,143.359 232.442,143.130 232.442 C 142.901 232.442,141.815 231.680,140.717 230.749 C 135.386 226.227,134.418 225.737,130.735 225.696 C 127.138 225.655,121.613 224.972,119.977 224.366 C 117.080 223.292,114.580 222.469,113.051 222.085 C 110.792 221.518,107.991 218.760,106.780 215.912 L 105.835 213.688 106.743 211.276 C 108.209 207.382,108.444 207.143,115.090 202.774 C 115.603 202.436,117.083 201.919,118.380 201.624 C 119.677 201.329,121.868 200.607,123.248 200.020 C 127.283 198.303,143.452 197.519,146.237 198.905 M221.569 222.483 C 217.177 222.656,212.847 223.070,209.257 223.660 C 200.645 225.075,197.200 225.292,177.540 225.663 C 156.016 226.069,151.006 226.289,149.554 226.890 L 148.485 227.333 149.588 227.907 C 157.063 231.799,178.038 232.793,196.282 230.121 C 199.434 229.659,205.049 229.104,208.760 228.886 C 218.082 228.341,221.399 227.923,224.365 226.919 C 227.325 225.918,229.688 225.483,235.080 224.949 C 240.232 224.438,242.996 223.166,240.791 222.320 C 240.085 222.049,230.487 222.130,221.569 222.483 M134.670 242.594 L 135.829 243.840 135.829 270.347 C 135.829 303.273,135.428 309.236,133.027 312.037 C 132.483 312.671,131.672 313.796,131.225 314.536 C 130.778 315.276,129.987 316.104,129.466 316.376 C 128.946 316.648,128.046 317.370,127.466 317.980 C 124.927 320.650,120.325 321.654,118.587 319.916 C 117.070 318.399,117.321 317.326,119.875 314.398 C 123.865 309.824,123.752 310.035,125.232 304.317 L 126.625 298.930 126.532 292.513 C 126.367 281.013,126.385 255.939,126.563 249.666 L 126.738 243.539 127.767 242.465 C 129.619 240.533,132.809 240.593,134.670 242.594 M261.319 257.939 C 270.262 260.940,270.597 261.912,270.845 285.579 L 271.011 301.462 269.819 303.014 C 267.975 305.418,267.792 305.462,265.005 304.199 C 260.837 302.310,258.041 302.381,252.774 304.511 C 244.951 307.675,236.852 304.787,235.125 298.217 C 233.275 291.182,234.568 285.391,238.664 282.365 C 241.965 279.927,242.916 279.502,246.304 278.954 C 248.092 278.665,250.397 278.102,251.426 277.702 C 252.456 277.303,254.901 276.591,256.860 276.120 C 261.470 275.013,261.995 274.398,261.737 270.410 C 261.364 264.672,253.308 261.501,245.098 263.860 C 239.982 265.330,238.524 265.061,237.822 262.519 C 237.195 260.249,238.410 259.191,242.246 258.668 C 243.226 258.535,245.312 258.047,246.881 257.585 C 248.449 257.122,250.053 256.660,250.446 256.558 C 252.604 255.992,257.295 256.588,261.319 257.939 M173.048 258.421 C 177.368 259.705,177.560 259.889,179.370 264.486 L 180.860 268.271 181.139 276.471 C 181.937 299.936,181.687 302.833,178.768 303.948 L 177.129 304.574 174.844 303.402 C 171.650 301.764,169.467 301.927,165.195 304.122 L 162.117 305.704 157.591 305.704 L 153.064 305.704 150.775 304.317 C 145.231 300.959,144.257 299.218,144.267 292.692 C 144.276 286.306,144.951 284.991,149.911 281.699 C 153.062 279.607,153.104 279.591,157.030 278.959 C 158.830 278.669,161.282 278.034,162.478 277.548 C 163.675 277.062,165.826 276.471,167.257 276.234 C 171.113 275.597,171.630 274.961,171.393 271.148 C 171.139 267.082,170.254 265.914,165.809 263.775 C 163.475 262.652,156.698 262.930,153.166 264.295 C 149.297 265.789,148.332 265.439,147.766 262.337 C 147.304 259.807,148.422 259.065,153.335 258.647 C 154.826 258.520,157.312 258.203,158.861 257.943 C 164.014 257.078,169.108 257.250,173.048 258.421 M195.345 258.496 C 197.494 258.957,198.366 259.911,198.896 262.382 C 199.102 263.343,199.753 265.061,200.343 266.200 C 201.046 267.558,201.593 269.394,201.932 271.533 C 202.275 273.695,202.832 275.553,203.583 277.042 C 204.244 278.349,204.926 280.487,205.216 282.158 C 206.848 291.563,210.616 295.067,211.909 288.383 C 212.190 286.929,212.896 284.617,213.477 283.244 C 214.195 281.549,214.714 279.411,215.094 276.578 C 215.480 273.706,215.990 271.619,216.730 269.878 C 217.412 268.277,217.987 266.038,218.298 263.773 C 218.958 258.972,219.243 258.688,223.566 258.520 C 228.758 258.318,229.658 259.857,227.265 264.851 C 226.302 266.860,225.880 268.392,225.459 271.411 C 225.069 274.207,224.593 276.027,223.818 277.685 C 223.213 278.980,222.500 281.372,222.218 283.058 C 221.884 285.053,221.237 287.076,220.333 288.948 C 219.576 290.517,218.857 292.442,218.735 293.226 C 218.614 294.011,217.859 296.016,217.059 297.683 C 216.258 299.349,215.341 301.275,215.021 301.961 C 213.769 304.642,207.984 306.198,204.991 304.658 C 201.906 303.071,199.364 298.294,198.251 291.995 C 197.805 289.470,197.220 287.516,196.481 286.089 C 195.744 284.667,195.204 282.869,194.858 280.687 C 194.508 278.481,193.975 276.716,193.220 275.265 C 192.517 273.916,191.900 271.954,191.563 269.998 C 191.219 268.008,190.585 266.008,189.808 264.466 C 187.146 259.178,189.033 257.142,195.345 258.496 M161.497 283.023 C 150.760 284.233,150.374 298.930,161.079 298.930 C 164.030 298.930,164.708 298.816,165.775 298.139 C 166.462 297.703,167.856 296.851,168.875 296.244 C 171.232 294.840,171.619 293.769,171.611 288.672 C 171.601 282.742,170.324 282.029,161.497 283.023 M251.328 283.057 C 245.646 283.791,240.969 290.101,243.232 293.982 C 247.013 300.469,253.170 301.109,259.220 295.643 C 261.541 293.547,261.832 292.709,261.844 288.116 C 261.858 282.491,260.559 281.866,251.328 283.057 M121.836 325.379 C 121.493 325.469,120.931 325.469,120.588 325.379 C 120.245 325.290,120.526 325.216,121.212 325.216 C 121.898 325.216,122.179 325.290,121.836 325.379 " stroke="none" fill="#2c2c34" fill-rule="evenodd"></path></g></svg>