<svg id="svg" version="1.1" xmlns="http://www.w3.org/2000/svg" xmlns:xlink="http://www.w3.org/1999/xlink" width="400" height="356.30252100840335" viewBox="0, 0, 400,356.30252100840335"><g id="svgg"><path id="path0" d="M190.731 79.032 C 180.163 80.129,171.378 84.712,167.280 91.266 C 163.255 97.703,162.611 104.620,164.009 126.381 C 164.236 129.911,164.356 135.125,164.276 137.968 L 164.131 143.137 162.641 145.989 C 161.821 147.558,160.426 149.723,159.541 150.800 C 158.656 151.877,157.932 152.879,157.932 153.027 C 157.932 153.175,157.377 153.910,156.699 154.661 C 155.500 155.987,154.826 156.894,151.553 161.575 C 150.692 162.807,149.691 164.144,149.328 164.547 C 148.966 164.950,148.250 166.313,147.736 167.577 C 147.223 168.841,146.490 170.314,146.107 170.851 C 145.725 171.388,144.962 173.159,144.412 174.787 C 143.862 176.415,143.143 178.266,142.814 178.902 C 142.486 179.537,141.820 181.425,141.336 183.097 C 140.851 184.769,140.070 186.897,139.599 187.825 C 139.129 188.754,138.473 190.469,138.141 191.637 C 137.809 192.805,136.996 194.744,136.334 195.946 C 134.757 198.806,134.046 201.644,134.046 205.077 C 134.046 208.759,133.071 210.860,128.976 215.995 C 127.185 218.243,122.441 220.720,118.218 221.614 C 114.720 222.355,112.826 223.485,111.508 225.617 C 110.231 227.683,110.128 229.338,110.965 234.300 C 111.857 239.586,111.600 242.335,109.772 247.059 C 107.362 253.288,110.582 257.654,118.735 259.214 C 120.783 259.606,124.064 260.312,126.025 260.783 C 127.986 261.254,130.232 261.739,131.016 261.861 C 135.197 262.512,138.374 263.273,140.285 264.081 C 157.277 271.260,164.672 271.545,171.575 265.290 C 174.280 262.838,174.663 262.722,182.888 261.866 C 190.659 261.056,198.724 260.792,201.429 261.258 C 202.702 261.477,205.267 261.825,207.130 262.031 C 212.083 262.577,212.666 262.841,215.865 265.975 C 222.626 272.600,231.593 273.057,238.328 267.119 C 239.934 265.703,242.598 263.547,245.276 261.496 C 246.159 260.820,248.084 259.612,249.554 258.813 C 253.248 256.804,255.138 255.716,257.219 254.400 C 258.200 253.780,259.724 252.961,260.606 252.581 C 261.488 252.200,263.223 251.203,264.461 250.365 C 265.699 249.527,266.905 248.841,267.141 248.841 C 267.376 248.841,268.467 247.919,269.564 246.791 C 274.799 241.412,273.276 235.889,265.523 232.136 C 263.995 231.396,261.237 228.618,260.342 226.916 C 260.135 226.524,259.865 225.080,259.740 223.708 C 259.351 219.415,258.775 217.191,257.565 215.313 C 255.987 212.864,255.820 211.262,256.681 206.850 C 258.512 197.479,255.715 184.067,250.464 177.038 C 250.011 176.432,249.308 175.170,248.901 174.235 C 248.494 173.299,247.694 171.855,247.122 171.026 C 244.921 167.837,242.586 164.152,242.200 163.262 C 241.978 162.751,241.322 161.784,240.741 161.113 C 240.160 160.442,239.098 159.011,238.381 157.932 C 237.664 156.854,236.396 154.988,235.562 153.787 C 234.728 152.585,233.569 150.901,232.986 150.044 C 232.403 149.186,231.419 147.843,230.800 147.059 C 230.181 146.275,229.235 144.758,228.699 143.690 C 228.162 142.621,227.348 141.177,226.890 140.481 C 225.623 138.557,225.067 135.818,224.638 129.388 C 224.423 126.166,224.079 120.987,223.874 117.879 C 223.314 109.369,222.177 103.352,220.329 99.109 C 219.773 97.834,218.980 95.909,218.567 94.831 C 217.367 91.704,211.834 85.270,209.189 83.926 C 208.547 83.600,207.139 82.800,206.061 82.149 C 203.582 80.652,195.277 78.610,192.623 78.845 C 192.269 78.876,191.417 78.960,190.731 79.032 M200.861 107.808 C 202.755 108.599,204.948 112.177,204.467 113.693 C 204.075 114.928,203.228 114.856,201.967 113.480 C 200.128 111.472,197.238 111.328,195.073 113.137 C 191.993 115.711,191.131 113.144,193.852 109.500 C 195.387 107.444,198.305 106.740,200.861 107.808 M176.738 109.537 C 178.150 111.309,178.061 113.345,176.572 113.364 C 175.025 113.383,172.818 109.830,174.064 109.327 C 174.923 108.980,176.387 109.095,176.738 109.537 M190.025 127.654 C 194.591 128.918,199.145 131.776,198.870 133.204 C 198.710 134.038,195.744 136.282,193.048 137.609 C 191.872 138.188,190.003 139.242,188.896 139.950 C 185.008 142.436,182.614 142.142,177.819 138.591 C 174.167 135.886,174.087 134.030,177.509 131.397 C 178.622 130.540,179.767 129.557,180.052 129.212 C 181.820 127.075,185.727 126.465,190.025 127.654 M205.319 140.672 C 206.945 141.322,207.633 142.236,208.589 145.015 C 208.965 146.108,209.742 147.736,210.316 148.634 C 210.889 149.533,211.716 151.230,212.152 152.406 C 212.588 153.583,213.160 154.878,213.424 155.285 C 213.688 155.692,214.298 157.185,214.781 158.604 C 215.263 160.023,216.131 162.016,216.708 163.034 C 217.285 164.051,218.109 166.078,218.540 167.537 C 218.970 168.996,219.776 171.001,220.331 171.993 C 220.886 172.985,221.590 174.775,221.896 175.971 C 222.201 177.167,222.845 179.034,223.325 180.121 C 225.579 185.217,227.316 196.377,226.734 202.024 C 226.110 208.073,225.546 209.030,221.505 210.884 C 217.766 212.599,217.400 213.757,216.944 225.312 C 216.581 234.538,213.823 238.430,204.100 243.436 C 197.284 246.945,179.937 249.418,176.110 247.426 C 174.110 246.385,172.100 244.390,171.197 242.550 L 170.254 240.626 171.487 238.406 C 174.548 232.891,172.179 228.149,163.033 221.490 C 151.471 213.072,147.825 206.777,149.728 198.519 C 151.875 189.197,152.148 188.392,154.887 183.272 C 156.590 180.089,157.798 177.339,158.140 175.866 C 158.438 174.578,159.316 172.042,160.090 170.230 C 160.864 168.419,161.497 166.678,161.497 166.361 C 161.497 165.468,164.919 159.162,166.466 157.206 C 167.228 156.241,168.129 154.606,168.468 153.572 C 169.418 150.675,171.748 146.239,172.545 145.813 C 173.136 145.497,173.681 145.684,175.665 146.880 C 181.780 150.568,185.727 150.172,194.296 145.008 C 198.019 142.764,202.985 140.216,203.825 140.117 C 203.870 140.111,204.543 140.361,205.319 140.672 M142.251 217.828 C 143.562 218.497,145.831 221.079,147.372 223.657 C 147.741 224.273,148.725 225.820,149.559 227.094 C 150.393 228.369,151.455 230.074,151.919 230.884 C 152.383 231.694,153.244 233.198,153.832 234.226 C 154.421 235.253,155.419 236.757,156.050 237.566 C 156.682 238.375,157.527 239.637,157.927 240.370 C 158.328 241.104,159.780 243.109,161.154 244.827 C 164.470 248.973,165.200 250.529,165.211 253.466 C 165.231 259.144,160.026 262.820,155.118 260.593 C 154.257 260.202,152.265 259.554,150.693 259.152 C 149.120 258.751,147.182 258.089,146.385 257.683 C 144.804 256.877,138.377 254.388,135.853 253.605 C 134.985 253.335,131.561 252.791,128.246 252.395 C 118.379 251.217,116.966 249.708,119.616 243.185 C 120.604 240.755,120.776 237.689,120.102 234.546 C 119.254 230.591,120.362 229.260,125.397 228.184 C 130.903 227.007,133.204 225.590,135.673 221.854 C 139.107 216.659,139.494 216.422,142.251 217.828 M252.226 229.226 C 252.999 232.381,255.175 235.140,258.925 237.722 C 263.207 240.670,262.677 241.745,255.063 245.564 C 247.162 249.527,245.952 250.177,245.199 250.862 C 244.751 251.270,244.019 251.793,243.571 252.024 C 243.123 252.255,241.155 253.878,239.198 255.631 C 237.241 257.383,234.817 259.260,233.813 259.801 C 232.808 260.342,231.648 260.991,231.234 261.245 C 230.158 261.903,227.511 261.498,226.455 260.514 C 223.808 258.046,223.107 254.362,224.200 248.662 C 225.017 244.400,226.167 236.590,226.563 232.620 C 226.986 228.373,228.238 227.919,232.776 230.367 C 236.186 232.207,243.453 230.625,248.234 227.001 C 250.600 225.208,251.343 225.622,252.226 229.226 " stroke="none" fill="#f2f3f3" fill-rule="evenodd"></path><path id="path1" d="M116.934 28.520 C 113.618 28.834,113.144 29.036,112.890 30.237 C 112.744 30.927,112.261 31.393,111.159 31.907 C 109.622 32.624,108.923 33.862,108.239 37.077 C 108.125 37.613,107.639 38.148,107.020 38.419 C 105.774 38.966,105.313 39.899,104.982 42.548 C 104.806 43.963,104.576 44.563,104.210 44.563 C 103.257 44.563,101.604 46.569,101.604 47.725 C 101.604 48.531,101.369 48.920,100.672 49.268 C 99.789 49.708,99.288 50.678,98.357 53.743 C 98.164 54.381,97.865 54.902,97.693 54.902 C 97.061 54.902,95.187 57.120,95.185 57.871 C 95.181 59.516,94.429 61.354,93.636 61.655 C 92.366 62.138,92.068 62.644,91.470 65.330 C 91.350 65.869,91.018 66.310,90.731 66.310 C 90.205 66.310,88.057 70.443,88.057 71.455 C 88.057 71.753,87.613 72.226,87.070 72.506 C 86.131 72.992,85.286 74.734,84.714 77.362 C 84.598 77.895,84.107 78.434,83.491 78.704 C 82.246 79.251,81.784 80.184,81.454 82.822 C 81.252 84.441,81.058 84.870,80.442 85.057 C 79.161 85.447,78.431 86.329,78.202 87.763 C 78.046 88.738,77.728 89.259,77.097 89.575 C 76.263 89.991,75.740 91.020,74.823 94.046 C 74.627 94.693,74.102 95.388,73.656 95.592 C 72.571 96.086,71.778 97.509,71.482 99.495 C 71.195 101.416,71.069 101.628,69.825 102.268 C 68.784 102.804,68.093 104.034,68.093 105.352 C 68.093 105.848,67.791 106.375,67.381 106.595 C 66.601 107.012,65.283 109.270,64.676 111.230 C 64.458 111.932,63.915 112.666,63.434 112.909 C 62.580 113.339,61.404 115.939,61.347 117.523 C 61.329 118.005,60.854 118.564,60.066 119.029 C 58.666 119.855,58.313 120.554,57.947 123.231 C 57.729 124.830,57.557 125.129,56.639 125.509 C 55.531 125.968,54.545 127.452,54.545 128.662 C 54.545 129.072,54.152 129.569,53.613 129.838 C 52.710 130.289,52.119 131.457,51.276 134.462 C 51.033 135.327,50.649 135.835,50.142 135.962 C 49.277 136.179,48.286 137.889,47.946 139.750 C 47.552 141.913,47.416 142.159,46.380 142.588 C 45.291 143.039,44.563 144.258,44.563 145.629 C 44.563 146.099,44.273 146.693,43.919 146.949 C 43.058 147.572,40.998 151.237,40.998 152.148 C 40.998 152.620,40.651 152.992,39.998 153.220 C 39.160 153.512,38.893 153.937,38.353 155.840 C 37.998 157.089,37.650 158.313,37.580 158.562 C 37.509 158.810,37.080 159.154,36.626 159.326 C 35.316 159.824,34.902 160.583,34.492 163.232 C 34.135 165.537,34.039 165.723,33.112 165.909 C 32.026 166.126,31.016 167.652,31.016 169.076 C 31.016 169.655,30.730 170.020,30.092 170.252 C 27.956 171.030,26.627 179.058,28.030 182.709 C 28.332 183.494,28.666 184.503,28.772 184.951 C 28.878 185.400,29.405 185.995,29.943 186.272 C 30.667 186.647,30.977 187.135,31.141 188.159 C 31.373 189.609,32.099 190.488,33.391 190.881 C 34.007 191.068,34.208 191.488,34.393 192.973 C 34.726 195.647,35.228 196.703,36.415 197.224 C 37.045 197.500,37.539 198.038,37.657 198.574 C 38.291 201.456,38.995 202.963,39.969 203.517 C 40.580 203.864,40.995 204.399,40.996 204.841 C 40.998 205.591,42.794 208.564,43.939 209.713 C 44.283 210.057,44.563 210.797,44.563 211.356 C 44.563 212.454,45.970 214.260,46.825 214.260 C 47.456 214.260,47.678 214.807,47.983 217.105 C 48.207 218.793,48.988 220.075,50.290 220.888 C 50.802 221.208,52.406 224.754,52.406 225.566 C 52.406 225.796,52.888 226.269,53.476 226.616 C 54.157 227.019,54.545 227.538,54.545 228.046 C 54.545 229.441,55.334 230.641,56.537 231.076 C 57.591 231.457,57.728 231.674,57.947 233.307 C 58.303 235.964,58.982 237.370,60.035 237.634 C 60.541 237.761,61.027 238.197,61.141 238.627 C 62.045 242.031,62.634 243.306,63.545 243.826 C 64.124 244.157,64.524 244.692,64.525 245.137 C 64.527 245.551,64.929 246.481,65.419 247.203 C 65.909 247.926,66.310 248.611,66.310 248.727 C 66.310 248.843,66.711 249.310,67.201 249.764 C 67.694 250.221,68.093 250.988,68.093 251.481 C 68.093 252.914,68.790 254.049,70.035 254.643 C 71.028 255.117,71.228 255.434,71.421 256.838 C 71.712 258.961,72.550 260.556,73.581 260.948 C 74.150 261.165,74.541 261.762,74.861 262.903 C 75.114 263.807,75.459 264.632,75.628 264.736 C 75.797 264.841,75.936 265.245,75.936 265.635 C 75.936 266.049,76.379 266.596,77.003 266.951 C 77.701 267.348,78.071 267.842,78.073 268.378 C 78.077 269.800,79.092 271.309,80.193 271.529 C 81.125 271.715,81.231 271.898,81.458 273.710 C 81.783 276.318,82.232 277.220,83.603 278.029 C 84.414 278.508,84.799 279.046,84.944 279.903 C 85.287 281.928,86.249 283.783,87.176 284.205 C 87.724 284.455,88.057 284.902,88.057 285.391 C 88.057 285.822,88.458 286.766,88.948 287.488 C 89.439 288.211,89.840 288.951,89.840 289.134 C 89.840 289.317,90.241 289.729,90.731 290.051 C 91.335 290.446,91.622 290.961,91.622 291.646 C 91.622 293.167,92.309 294.377,93.439 294.845 C 94.500 295.284,94.639 295.546,95.039 297.861 C 95.327 299.522,96.342 301.114,97.311 301.421 C 97.695 301.543,98.094 302.110,98.229 302.727 C 98.659 304.684,99.799 306.855,100.711 307.453 C 101.202 307.774,101.604 308.363,101.604 308.760 C 101.604 309.977,102.585 311.463,103.690 311.921 C 104.579 312.289,104.776 312.613,104.971 314.021 C 105.314 316.506,105.840 317.562,107.125 318.357 C 107.944 318.863,108.341 319.420,108.476 320.252 C 108.864 322.641,109.691 323.991,111.292 324.845 L 112.834 325.668 197.877 325.668 C 292.975 325.668,284.537 325.907,285.044 323.205 C 285.212 322.311,285.544 321.871,286.283 321.565 C 287.379 321.111,288.155 319.577,288.580 317.025 C 288.790 315.765,289.034 315.416,290.042 314.938 C 291.183 314.396,291.970 312.915,291.977 311.295 C 291.978 311.037,292.701 309.939,293.583 308.856 C 294.672 307.519,295.187 306.551,295.187 305.841 C 295.187 305.072,295.408 304.711,296.024 304.477 C 296.946 304.127,297.765 302.641,298.451 300.075 C 298.723 299.057,299.147 298.318,299.530 298.197 C 300.580 297.864,301.554 296.300,301.810 294.538 C 302.102 292.525,302.531 291.622,303.195 291.622 C 303.980 291.622,305.053 289.997,305.304 288.426 C 305.431 287.635,305.684 286.988,305.868 286.988 C 306.425 286.988,308.734 283.228,308.737 282.316 C 308.738 281.744,309.087 281.264,309.789 280.864 C 310.634 280.384,311.000 279.747,311.657 277.615 C 312.314 275.481,312.659 274.881,313.424 274.543 C 314.537 274.050,314.750 273.621,315.286 270.795 C 315.623 269.016,315.854 268.592,316.756 268.094 C 317.925 267.448,318.703 266.215,318.711 264.993 C 318.714 264.563,319.036 263.987,319.428 263.714 C 320.266 263.126,321.743 260.463,322.080 258.931 C 322.222 258.283,322.658 257.697,323.173 257.462 C 324.142 257.021,324.930 255.673,325.296 253.832 C 325.732 251.636,325.852 251.421,326.882 250.995 C 328.107 250.487,328.555 249.581,328.884 246.946 C 329.086 245.327,329.281 244.898,329.897 244.711 C 331.183 244.320,331.908 243.438,332.141 241.979 C 332.273 241.155,332.647 240.415,333.057 240.168 C 333.851 239.690,335.270 237.072,335.624 235.432 C 335.771 234.752,336.195 234.172,336.721 233.933 C 337.796 233.443,338.539 232.029,338.866 229.850 C 339.083 228.403,339.286 228.079,340.274 227.610 C 341.448 227.053,342.231 225.427,342.258 223.488 C 342.270 222.587,343.358 221.034,343.976 221.034 C 344.548 221.034,345.455 219.543,345.455 218.602 C 345.455 218.128,345.907 217.332,346.481 216.796 C 347.575 215.774,349.020 212.957,349.020 211.844 C 349.020 211.459,349.588 210.803,350.349 210.309 C 351.531 209.544,351.740 209.177,352.221 207.027 C 352.656 205.084,352.939 204.520,353.654 204.170 C 354.671 203.672,355.791 201.677,355.795 200.357 C 355.796 199.791,356.383 198.846,357.399 197.773 C 358.440 196.674,359.002 195.761,359.002 195.168 C 359.002 194.621,359.414 193.872,360.033 193.295 C 361.124 192.279,362.567 189.444,362.567 188.315 C 362.567 187.945,362.967 187.429,363.456 187.167 C 366.968 185.287,367.124 171.142,363.648 169.702 C 362.936 169.407,362.597 168.965,362.460 168.156 C 362.145 166.299,360.763 163.564,360.045 163.376 C 359.611 163.263,359.291 162.744,359.135 161.904 C 358.993 161.135,358.262 159.863,357.344 158.785 C 356.491 157.784,355.793 156.615,355.793 156.189 C 355.793 154.730,354.842 153.077,353.739 152.620 C 352.862 152.256,352.626 151.906,352.437 150.687 C 352.018 147.974,351.520 146.954,350.247 146.203 C 349.530 145.780,349.020 145.196,349.020 144.798 C 349.020 143.548,347.302 140.176,346.542 139.934 C 346.037 139.774,345.745 139.286,345.595 138.348 C 345.440 137.377,344.934 136.562,343.812 135.474 C 342.716 134.412,342.246 133.665,342.246 132.985 C 342.246 131.283,341.516 129.829,340.303 129.113 C 339.319 128.533,339.089 128.142,338.872 126.688 C 338.563 124.624,337.785 123.188,336.707 122.697 C 336.274 122.500,335.807 121.887,335.669 121.335 C 335.155 119.289,333.715 116.634,332.995 116.405 C 332.516 116.253,332.264 115.867,332.264 115.288 C 332.264 114.064,331.340 112.394,330.520 112.133 C 329.695 111.872,328.702 109.900,328.691 108.502 C 328.682 107.373,327.928 106.310,326.514 105.434 C 325.797 104.990,325.518 104.452,325.324 103.140 C 325.030 101.150,323.986 99.265,323.041 99.018 C 322.679 98.923,322.268 98.388,322.127 97.830 C 321.642 95.895,320.105 93.084,319.412 92.864 C 318.969 92.724,318.717 92.323,318.717 91.759 C 318.717 90.416,317.738 88.806,316.775 88.565 C 315.784 88.316,315.653 88.059,315.320 85.696 C 315.031 83.650,314.350 82.437,313.255 82.021 C 312.657 81.794,312.274 81.066,311.670 79.016 C 311.004 76.752,310.700 76.221,309.804 75.758 C 309.106 75.397,308.733 74.929,308.729 74.412 C 308.726 73.975,308.490 73.217,308.204 72.727 C 307.918 72.237,307.437 71.315,307.135 70.677 C 306.833 70.040,306.349 69.519,306.060 69.519 C 305.718 69.519,305.450 68.995,305.294 68.019 C 305.045 66.460,303.826 64.884,302.868 64.884 C 302.565 64.884,302.317 64.833,302.317 64.771 C 302.317 62.224,300.962 58.968,299.702 58.489 C 299.121 58.268,298.777 57.672,298.427 56.277 C 297.822 53.863,297.079 52.571,296.020 52.088 C 295.506 51.854,295.185 51.398,295.182 50.899 C 295.179 50.454,294.948 49.688,294.669 49.198 C 294.389 48.708,293.918 47.785,293.622 47.148 C 293.327 46.511,292.854 45.989,292.572 45.989 C 292.238 45.989,291.976 45.433,291.820 44.395 C 291.584 42.821,290.368 41.355,289.297 41.355 C 289.035 41.355,288.756 40.656,288.620 39.661 C 288.282 37.187,287.378 35.316,286.402 35.071 C 285.836 34.929,285.465 34.468,285.229 33.611 C 285.038 32.922,284.608 32.055,284.273 31.684 C 283.938 31.314,283.485 30.651,283.267 30.211 C 282.303 28.272,286.060 28.357,199.465 28.310 C 155.544 28.286,118.405 28.380,116.934 28.520 M195.832 79.173 C 200.320 79.847,204.041 80.929,206.061 82.149 C 207.139 82.800,208.547 83.600,209.189 83.926 C 211.834 85.270,217.367 91.704,218.567 94.831 C 218.980 95.909,219.773 97.834,220.329 99.109 C 222.177 103.352,223.314 109.369,223.874 117.879 C 224.079 120.987,224.423 126.166,224.638 129.388 C 225.067 135.818,225.623 138.557,226.890 140.481 C 227.348 141.177,228.162 142.621,228.699 143.690 C 229.235 144.758,230.181 146.275,230.800 147.059 C 231.419 147.843,232.403 149.186,232.986 150.044 C 233.569 150.901,234.728 152.585,235.562 153.787 C 236.396 154.988,237.664 156.854,238.381 157.932 C 239.098 159.011,240.160 160.442,240.741 161.113 C 241.322 161.784,241.978 162.751,242.200 163.262 C 242.586 164.152,244.921 167.837,247.122 171.026 C 247.694 171.855,248.494 173.299,248.901 174.235 C 249.308 175.170,250.011 176.432,250.464 177.038 C 255.715 184.067,258.512 197.479,256.681 206.850 C 255.820 211.262,255.987 212.864,257.565 215.313 C 258.775 217.191,259.351 219.415,259.740 223.708 C 259.865 225.080,260.135 226.524,260.342 226.916 C 261.237 228.618,263.995 231.396,265.523 232.136 C 273.276 235.889,274.799 241.412,269.564 246.791 C 268.467 247.919,267.376 248.841,267.141 248.841 C 266.905 248.841,265.699 249.527,264.461 250.365 C 263.223 251.203,261.488 252.200,260.606 252.581 C 259.724 252.961,258.200 253.780,257.219 254.400 C 255.138 255.716,253.248 256.804,249.554 258.813 C 248.084 259.612,246.159 260.820,245.276 261.496 C 242.598 263.547,239.934 265.703,238.328 267.119 C 231.593 273.057,222.626 272.600,215.865 265.975 C 212.666 262.841,212.083 262.577,207.130 262.031 C 205.267 261.825,202.702 261.477,201.429 261.258 C 198.724 260.792,190.659 261.056,182.888 261.866 C 174.663 262.722,174.280 262.838,171.575 265.290 C 164.672 271.545,157.277 271.260,140.285 264.081 C 138.374 263.273,135.197 262.512,131.016 261.861 C 130.232 261.739,127.986 261.254,126.025 260.783 C 124.064 260.312,120.783 259.606,118.735 259.214 C 110.582 257.654,107.362 253.288,109.772 247.059 C 111.600 242.335,111.857 239.586,110.965 234.300 C 110.128 229.338,110.231 227.683,111.508 225.617 C 112.826 223.485,114.720 222.355,118.218 221.614 C 122.441 220.720,127.185 218.243,128.976 215.995 C 133.071 210.860,134.046 208.759,134.046 205.077 C 134.046 201.644,134.757 198.806,136.334 195.946 C 136.996 194.744,137.809 192.805,138.141 191.637 C 138.473 190.469,139.129 188.754,139.599 187.825 C 140.070 186.897,140.851 184.769,141.336 183.097 C 141.820 181.425,142.486 179.537,142.814 178.902 C 143.143 178.266,143.862 176.415,144.412 174.787 C 144.962 173.159,145.725 171.388,146.107 170.851 C 146.490 170.314,147.223 168.841,147.736 167.577 C 148.250 166.313,148.966 164.950,149.328 164.547 C 149.691 164.144,150.692 162.807,151.553 161.575 C 154.826 156.894,155.500 155.987,156.699 154.661 C 157.377 153.910,157.932 153.175,157.932 153.027 C 157.932 152.879,158.656 151.877,159.541 150.800 C 160.426 149.723,161.821 147.558,162.641 145.989 L 164.131 143.137 164.276 137.968 C 164.356 135.125,164.236 129.911,164.009 126.381 C 162.611 104.620,163.255 97.703,167.280 91.266 C 171.655 84.269,180.541 79.914,192.623 78.845 C 192.978 78.814,194.422 78.961,195.832 79.173 M195.857 107.821 C 194.043 108.610,191.947 111.772,192.302 113.185 C 192.635 114.513,193.443 114.499,195.073 113.137 C 197.238 111.328,200.128 111.472,201.967 113.480 C 203.610 115.273,205.143 114.484,204.432 112.210 C 203.219 108.336,199.292 106.326,195.857 107.821 M174.064 109.327 C 173.196 109.677,173.602 111.142,174.879 112.263 C 177.486 114.552,178.984 112.357,176.738 109.537 C 176.387 109.095,174.923 108.980,174.064 109.327 M182.353 127.754 C 181.373 128.211,180.337 128.867,180.052 129.212 C 179.767 129.557,178.622 130.540,177.509 131.397 C 174.087 134.030,174.167 135.886,177.819 138.591 C 182.614 142.142,185.008 142.436,188.896 139.950 C 190.003 139.242,191.872 138.188,193.048 137.609 C 197.703 135.317,199.614 133.254,198.362 131.870 C 195.168 128.341,186.097 126.009,182.353 127.754 M201.426 141.117 C 200.152 141.662,196.943 143.413,194.296 145.008 C 185.727 150.172,181.780 150.568,175.665 146.880 C 173.681 145.684,173.136 145.497,172.545 145.813 C 171.748 146.239,169.418 150.675,168.468 153.572 C 168.129 154.606,167.228 156.241,166.466 157.206 C 164.919 159.162,161.497 165.468,161.497 166.361 C 161.497 166.678,160.864 168.419,160.090 170.230 C 159.316 172.042,158.438 174.578,158.140 175.866 C 157.798 177.339,156.590 180.089,154.887 183.272 C 152.148 188.392,151.875 189.197,149.728 198.519 C 147.825 206.777,151.471 213.072,163.033 221.490 C 172.179 228.149,174.548 232.891,171.487 238.406 L 170.254 240.626 171.197 242.550 C 172.100 244.390,174.110 246.385,176.110 247.426 C 179.937 249.418,197.284 246.945,204.100 243.436 C 213.823 238.430,216.581 234.538,216.944 225.312 C 217.400 213.757,217.766 212.599,221.505 210.884 C 225.546 209.030,226.110 208.073,226.734 202.024 C 227.316 196.377,225.579 185.217,223.325 180.121 C 222.845 179.034,222.201 177.167,221.896 175.971 C 221.590 174.775,220.886 172.985,220.331 171.993 C 219.776 171.001,218.970 168.996,218.540 167.537 C 218.109 166.078,217.285 164.051,216.708 163.034 C 216.131 162.016,215.263 160.023,214.781 158.604 C 214.298 157.185,213.688 155.692,213.424 155.285 C 213.160 154.878,212.588 153.583,212.152 152.406 C 211.716 151.230,210.889 149.533,210.316 148.634 C 209.742 147.736,208.965 146.108,208.589 145.015 C 207.009 140.423,205.267 139.475,201.426 141.117 M138.454 217.914 C 138.065 218.356,136.814 220.129,135.673 221.854 C 133.204 225.590,130.903 227.007,125.397 228.184 C 120.362 229.260,119.254 230.591,120.102 234.546 C 120.776 237.689,120.604 240.755,119.616 243.185 C 116.966 249.708,118.379 251.217,128.246 252.395 C 131.561 252.791,134.985 253.335,135.853 253.605 C 138.377 254.388,144.804 256.877,146.385 257.683 C 147.182 258.089,149.120 258.751,150.693 259.152 C 152.265 259.554,154.257 260.202,155.118 260.593 C 160.026 262.820,165.231 259.144,165.211 253.466 C 165.200 250.529,164.470 248.973,161.154 244.827 C 159.780 243.109,158.328 241.104,157.927 240.370 C 157.527 239.637,156.682 238.375,156.050 237.566 C 155.419 236.757,154.421 235.253,153.832 234.226 C 153.244 233.198,152.383 231.694,151.919 230.884 C 151.455 230.074,150.393 228.369,149.559 227.094 C 148.725 225.820,147.741 224.273,147.372 223.657 C 144.130 218.234,140.330 215.787,138.454 217.914 M249.911 225.949 C 249.617 226.052,248.862 226.525,248.234 227.001 C 243.453 230.625,236.186 232.207,232.776 230.367 C 228.238 227.919,226.986 228.373,226.563 232.620 C 226.167 236.590,225.017 244.400,224.200 248.662 C 223.107 254.362,223.808 258.046,226.455 260.514 C 227.511 261.498,230.158 261.903,231.234 261.245 C 231.648 260.991,232.808 260.342,233.813 259.801 C 234.817 259.260,237.241 257.383,239.198 255.631 C 241.155 253.878,243.123 252.255,243.571 252.024 C 244.019 251.793,244.751 251.270,245.199 250.862 C 245.952 250.177,247.162 249.527,255.063 245.564 C 262.677 241.745,263.207 240.670,258.925 237.722 C 255.175 235.140,252.999 232.381,252.226 229.226 C 251.610 226.713,250.841 225.623,249.911 225.949 " stroke="none" fill="#2a2c32" fill-rule="evenodd"></path></g></svg>