<svg id="svg" version="1.1" xmlns="http://www.w3.org/2000/svg" xmlns:xlink="http://www.w3.org/1999/xlink" width="400" height="320.6896551724138" viewBox="0, 0, 400,320.6896551724138"><g id="svgg"><path id="path0" d="M182.266 65.461 C 178.445 65.754,172.621 66.796,169.848 67.682 C 168.789 68.020,166.420 68.672,164.582 69.131 C 160.962 70.036,152.747 73.141,151.357 74.131 C 150.885 74.467,149.294 75.319,147.823 76.024 C 144.398 77.664,139.576 80.370,138.740 81.122 C 138.383 81.442,137.225 82.304,136.167 83.037 C 126.761 89.549,116.056 100.667,110.801 109.383 C 110.322 110.176,109.381 111.692,108.710 112.751 C 108.039 113.809,107.250 115.249,106.958 115.951 C 106.665 116.653,105.992 117.857,105.462 118.628 C 104.932 119.398,104.000 121.479,103.392 123.250 C 102.783 125.022,101.940 127.138,101.519 127.951 C 101.097 128.765,100.315 130.946,99.780 132.799 C 99.245 134.651,98.525 136.904,98.180 137.804 C 96.308 142.687,94.561 161.730,95.865 163.034 C 97.137 164.306,98.854 160.204,99.747 153.757 C 100.575 147.780,100.867 146.283,102.018 142.101 C 102.528 140.249,103.084 137.428,103.253 135.833 C 103.649 132.103,104.009 131.340,105.669 130.706 C 107.760 129.908,146.195 130.169,148.984 131.001 C 154.422 132.622,159.719 137.136,162.288 142.340 C 164.737 147.299,165.017 148.386,165.520 154.873 C 166.127 162.697,167.601 160.107,169.697 147.535 C 170.398 143.331,171.180 138.981,171.435 137.868 C 171.691 136.756,172.126 134.403,172.403 132.638 C 172.679 130.874,173.408 127.182,174.021 124.434 C 174.635 121.686,175.414 117.645,175.753 115.453 C 176.917 107.921,177.324 107.643,186.904 107.835 C 194.189 107.981,194.707 108.550,193.480 115.063 C 190.424 131.284,189.767 130.347,204.263 130.450 C 209.858 130.489,215.334 130.605,216.432 130.706 C 225.270 131.522,231.469 138.892,229.868 146.682 C 229.158 150.139,227.563 159.778,227.096 163.432 C 226.893 165.020,226.295 168.051,225.767 170.168 C 225.239 172.285,224.394 176.497,223.889 179.528 C 222.338 188.846,222.126 189.057,214.172 189.195 C 204.503 189.363,203.417 188.542,205.275 182.472 C 205.618 181.350,206.053 179.495,206.241 178.348 C 206.429 177.201,206.954 173.953,207.408 171.131 C 207.862 168.308,208.651 164.266,209.162 162.149 C 213.005 146.224,211.184 143.130,197.777 142.807 C 188.196 142.576,187.891 142.912,186.047 155.734 C 185.513 159.439,184.861 163.219,184.596 164.134 C 183.832 166.778,182.869 171.723,182.171 176.584 C 181.182 183.468,180.162 187.268,178.987 188.443 L 178.016 189.415 171.707 189.514 C 161.628 189.674,161.539 189.571,163.743 180.301 C 165.663 172.224,166.677 162.061,165.665 161.046 C 164.775 160.154,163.161 162.506,162.164 166.147 C 159.586 175.564,151.344 184.431,142.656 187.137 C 136.641 189.010,136.564 189.019,124.283 189.223 C 109.937 189.461,110.782 189.133,110.022 194.757 C 109.823 196.229,109.237 199.441,108.719 201.895 C 107.129 209.438,107.415 210.821,111.939 217.482 C 112.478 218.276,113.408 219.675,114.004 220.592 C 117.887 226.556,129.344 237.471,137.572 243.046 C 139.445 244.315,141.607 245.810,142.375 246.369 C 143.143 246.927,144.731 247.808,145.903 248.327 C 147.076 248.846,149.334 249.910,150.922 250.692 C 156.311 253.343,159.575 254.649,162.924 255.492 C 164.762 255.955,167.144 256.690,168.217 257.126 C 177.002 260.696,207.025 260.605,217.161 256.977 C 218.661 256.440,221.115 255.694,222.614 255.319 C 224.114 254.944,226.805 254.000,228.594 253.221 C 230.383 252.442,231.939 251.804,232.052 251.804 C 232.511 251.804,241.390 247.267,242.002 246.719 C 242.365 246.394,243.528 245.651,244.587 245.068 C 245.646 244.485,246.836 243.716,247.233 243.360 C 247.631 243.003,248.813 242.122,249.862 241.403 C 258.698 235.346,268.125 225.473,274.098 216.020 C 275.156 214.345,276.512 212.220,277.109 211.299 C 277.707 210.377,278.542 208.829,278.965 207.859 C 279.388 206.889,280.380 204.796,281.169 203.208 C 283.895 197.722,286.431 190.181,286.524 187.284 C 286.621 184.274,285.634 183.768,282.798 185.372 C 277.524 188.355,271.747 189.228,257.167 189.245 C 246.276 189.258,246.545 189.037,244.888 199.358 C 242.915 211.648,243.148 211.387,234.148 211.387 C 225.201 211.387,224.566 210.834,226.105 204.383 C 226.638 202.149,227.450 197.683,227.909 194.459 C 228.368 191.234,229.236 186.592,229.838 184.142 C 230.439 181.692,231.232 177.618,231.600 175.088 C 231.967 172.559,232.466 169.623,232.709 168.565 C 232.951 167.506,233.672 163.609,234.311 159.904 C 234.950 156.199,235.917 151.147,236.459 148.677 C 237.001 146.207,237.771 141.682,238.170 138.621 C 239.370 129.418,237.230 130.168,262.160 130.218 C 280.939 130.255,281.860 130.230,282.373 129.662 C 283.631 128.273,283.330 125.658,281.586 122.824 C 281.051 121.955,280.144 120.111,279.569 118.728 C 278.994 117.345,278.089 115.578,277.557 114.803 C 277.025 114.027,276.205 112.670,275.735 111.788 C 274.331 109.152,271.688 105.497,266.307 98.747 C 264.749 96.792,258.296 90.495,255.347 88.051 C 254.070 86.993,252.497 85.673,251.853 85.119 C 249.280 82.907,239.505 76.841,236.407 75.535 C 235.613 75.200,234.459 74.622,233.841 74.252 C 233.224 73.881,232.213 73.380,231.596 73.140 C 230.978 72.899,228.958 72.062,227.107 71.280 C 225.256 70.498,221.936 69.450,219.730 68.951 C 217.523 68.452,215.176 67.816,214.513 67.537 C 209.894 65.595,193.916 64.566,182.266 65.461 M123.948 143.032 C 120.069 143.518,119.110 145.132,117.725 153.497 C 117.200 156.668,116.344 161.067,115.821 163.272 C 112.766 176.170,112.866 176.373,122.270 176.405 C 133.265 176.443,137.661 174.701,142.253 168.490 C 147.696 161.130,148.265 148.708,143.297 145.685 C 139.571 143.416,130.645 142.193,123.948 143.032 M260.753 143.043 C 256.756 143.237,256.309 143.411,255.430 145.109 C 254.868 146.196,252.786 156.143,251.814 162.386 C 251.464 164.634,250.885 167.620,250.527 169.021 C 248.749 175.986,249.580 176.612,260.228 176.337 C 272.773 176.013,277.145 172.789,281.856 160.385 C 285.410 151.030,281.006 144.366,270.417 143.074 C 267.632 142.734,267.155 142.733,260.753 143.043 " stroke="none" fill="#f5f6f6" fill-rule="evenodd"></path><path id="path1" d="M109.173 7.370 C 105.906 7.743,103.929 9.319,103.929 11.551 C 103.929 11.733,103.582 12.040,103.158 12.234 C 102.308 12.621,101.001 14.820,100.391 16.888 C 100.136 17.750,99.727 18.342,99.227 18.570 C 98.384 18.954,97.311 21.125,96.998 23.080 C 96.775 24.478,96.626 24.731,95.750 25.211 C 94.742 25.762,93.760 27.437,93.525 29.007 C 93.356 30.131,93.002 30.747,91.900 31.833 C 90.927 32.793,90.397 33.640,90.188 34.574 C 90.013 35.350,89.493 36.301,88.965 36.808 C 88.150 37.591,87.518 38.783,86.327 41.787 C 86.133 42.275,85.646 42.800,85.245 42.952 C 84.518 43.229,83.860 44.675,83.088 47.695 C 82.869 48.553,82.518 49.111,82.118 49.238 C 81.199 49.530,80.264 51.011,79.872 52.799 C 79.329 55.274,79.272 55.382,78.088 56.181 C 77.238 56.755,76.849 57.341,76.473 58.618 C 76.201 59.543,75.723 60.481,75.410 60.703 C 74.742 61.178,73.489 63.389,72.710 65.470 C 72.375 66.361,71.861 67.080,71.410 67.286 C 70.846 67.543,70.444 68.302,69.764 70.393 C 69.061 72.551,68.671 73.273,67.989 73.676 C 66.937 74.298,66.211 75.722,65.904 77.767 C 65.780 78.599,65.515 79.411,65.317 79.571 C 65.118 79.731,64.486 80.238,63.913 80.698 C 63.183 81.282,62.810 81.902,62.674 82.756 C 62.560 83.464,62.069 84.425,61.504 85.044 C 60.580 86.056,58.702 89.589,58.701 90.317 C 58.701 90.504,58.304 90.956,57.819 91.320 C 56.934 91.985,56.155 93.608,55.499 96.151 C 55.300 96.922,54.956 97.514,54.707 97.514 C 53.843 97.514,52.641 99.424,52.248 101.422 C 52.035 102.506,51.610 103.621,51.304 103.901 C 50.997 104.181,50.385 104.737,49.943 105.136 C 49.472 105.562,48.982 106.522,48.756 107.462 C 48.545 108.342,48.244 109.062,48.087 109.062 C 47.611 109.062,45.626 112.335,45.188 113.840 C 44.956 114.637,44.547 115.311,44.246 115.389 C 43.555 115.570,42.533 117.421,41.886 119.660 C 41.497 121.007,41.139 121.575,40.409 122.006 C 39.331 122.643,38.644 124.030,38.313 126.236 C 38.191 127.050,37.929 127.851,37.731 128.016 C 37.532 128.180,36.970 128.615,36.481 128.981 C 35.863 129.445,35.432 130.225,35.065 131.544 C 34.770 132.605,34.356 133.440,34.124 133.440 C 33.897 133.440,33.471 133.945,33.178 134.563 C 32.885 135.180,32.546 135.686,32.425 135.686 C 32.303 135.686,31.936 136.443,31.609 137.370 C 31.281 138.296,30.607 139.415,30.111 139.856 C 29.524 140.377,28.931 141.499,28.416 143.063 C 27.893 144.649,27.371 145.632,26.883 145.948 C 25.550 146.810,25.051 147.845,24.255 151.403 C 24.156 151.844,23.666 152.436,23.164 152.717 C 20.034 154.476,20.050 166.255,23.185 168.280 C 24.011 168.813,24.326 169.325,24.665 170.686 C 25.226 172.939,25.956 174.499,26.450 174.499 C 27.094 174.499,27.822 175.528,28.210 176.985 C 28.410 177.735,28.712 178.348,28.882 178.348 C 29.051 178.348,29.190 178.539,29.190 178.771 C 29.190 179.004,29.695 179.785,30.313 180.506 C 30.930 181.228,31.435 182.062,31.435 182.360 C 31.435 183.469,32.469 185.045,33.523 185.545 C 34.463 185.991,34.649 186.288,34.995 187.896 C 35.524 190.358,36.055 191.350,37.208 192.031 C 37.738 192.344,38.172 192.822,38.172 193.092 C 38.172 193.978,40.086 197.654,40.865 198.267 C 41.292 198.603,41.723 199.383,41.847 200.043 C 42.045 201.095,42.739 201.986,44.366 203.277 C 44.636 203.492,45.029 204.502,45.239 205.523 C 45.712 207.828,46.385 209.012,47.482 209.466 C 48.158 209.746,48.483 210.288,49.080 212.126 C 49.580 213.669,50.168 214.759,50.850 215.412 C 51.412 215.949,52.053 216.938,52.274 217.608 C 52.495 218.278,53.293 219.471,54.047 220.257 C 55.034 221.287,55.476 222.058,55.629 223.012 C 55.940 224.962,56.706 226.357,57.688 226.763 C 58.396 227.057,58.721 227.611,59.460 229.789 C 60.172 231.884,60.564 232.573,61.289 233.001 C 61.898 233.361,62.326 233.971,62.548 234.795 C 62.733 235.482,63.520 236.824,64.297 237.778 C 65.081 238.741,65.804 240.018,65.923 240.649 C 66.215 242.207,67.204 243.741,68.148 244.100 C 68.710 244.314,69.035 244.790,69.290 245.776 C 69.976 248.429,70.634 249.807,71.532 250.470 C 72.029 250.838,72.616 251.686,72.835 252.354 C 73.260 253.652,74.486 255.497,75.464 256.311 C 75.793 256.585,76.203 257.437,76.375 258.204 C 76.741 259.830,77.703 261.307,78.579 261.585 C 78.996 261.717,79.356 262.367,79.697 263.608 C 80.407 266.190,81.142 267.499,82.181 268.036 C 82.675 268.292,83.079 268.759,83.079 269.075 C 83.079 269.940,84.862 273.251,85.791 274.112 C 86.240 274.528,86.608 275.201,86.609 275.606 C 86.611 276.720,87.807 278.452,88.845 278.844 C 89.519 279.099,89.819 279.471,89.962 280.228 C 90.514 283.174,91.113 284.479,92.227 285.168 C 92.841 285.548,93.344 286.099,93.344 286.393 C 93.345 287.333,95.247 290.990,96.075 291.640 C 96.513 291.985,96.872 292.488,96.872 292.757 C 96.872 293.749,97.923 295.418,98.916 296.004 C 99.809 296.530,100.012 296.920,100.521 299.081 C 101.053 301.336,101.215 301.629,102.346 302.377 C 103.029 302.829,103.677 303.508,103.785 303.885 C 104.645 306.878,105.406 308.251,106.597 308.962 C 107.280 309.370,108.318 310.136,108.903 310.666 C 109.488 311.195,110.229 311.844,110.549 312.109 C 111.555 312.941,280.388 312.827,281.957 311.994 C 283.566 311.140,285.743 308.942,286.123 307.788 C 286.325 307.176,286.876 306.571,287.571 306.197 C 288.488 305.703,288.790 305.267,289.232 303.799 C 289.530 302.812,290.326 301.267,291.001 300.366 C 291.677 299.465,292.450 298.080,292.719 297.289 C 292.995 296.479,293.604 295.560,294.113 295.183 C 294.780 294.690,295.246 293.812,295.890 291.829 C 296.517 289.903,296.959 289.057,297.452 288.838 C 298.480 288.382,299.494 286.659,299.753 284.932 C 300.054 282.928,300.338 282.448,301.512 281.962 C 302.314 281.629,302.590 281.221,303.070 279.656 C 303.391 278.611,304.010 277.349,304.445 276.854 C 305.249 275.937,306.333 273.922,306.966 272.165 C 307.158 271.632,307.615 271.054,307.982 270.882 C 308.665 270.562,309.579 268.680,310.161 266.399 C 310.402 265.455,310.732 265.009,311.413 264.709 C 312.475 264.241,313.187 262.807,313.720 260.064 C 313.936 258.954,314.244 258.220,314.494 258.220 C 315.423 258.220,316.551 256.897,316.950 255.340 C 317.175 254.462,317.730 253.333,318.182 252.831 C 319.256 251.642,320.323 249.666,320.601 248.350 C 320.748 247.659,321.127 247.145,321.717 246.840 C 322.439 246.467,322.779 245.858,323.494 243.661 C 324.219 241.432,324.531 240.879,325.229 240.590 C 326.376 240.115,326.830 239.300,327.355 236.775 C 327.622 235.489,328.012 234.516,328.336 234.322 C 329.506 233.625,330.387 232.490,330.764 231.192 C 330.982 230.444,331.640 229.261,332.227 228.563 C 332.813 227.866,333.603 226.445,333.982 225.405 C 334.404 224.249,335.014 223.262,335.555 222.862 C 336.205 222.382,336.666 221.497,337.296 219.517 C 338.003 217.297,338.316 216.741,339.079 216.346 C 340.207 215.763,340.786 214.694,341.285 212.268 C 341.559 210.940,341.861 210.319,342.365 210.053 C 343.456 209.475,344.158 208.515,344.534 207.087 C 344.724 206.365,345.229 205.443,345.656 205.039 C 346.562 204.180,347.480 202.470,348.040 200.594 C 348.299 199.729,348.711 199.139,349.218 198.908 C 350.102 198.506,351.107 196.474,351.434 194.428 C 351.612 193.312,351.878 192.904,352.846 192.264 C 354.192 191.373,354.709 190.444,354.987 188.411 C 355.171 187.069,355.711 186.266,357.264 185.023 C 357.637 184.725,358.123 183.859,358.344 183.098 C 358.565 182.338,359.222 181.150,359.804 180.458 C 360.726 179.362,362.149 176.327,362.149 175.457 C 362.149 175.292,362.560 174.945,363.061 174.685 C 363.980 174.210,364.611 172.945,365.346 170.101 C 365.586 169.173,365.980 168.582,366.605 168.213 C 370.169 166.108,370.022 154.043,366.416 152.664 C 365.939 152.481,365.597 151.947,365.362 151.016 C 364.654 148.215,363.992 146.836,363.116 146.333 C 362.513 145.987,362.055 145.283,361.640 144.061 C 361.309 143.088,360.525 141.635,359.898 140.833 C 359.272 140.031,358.558 138.754,358.312 137.995 C 357.792 136.389,357.134 135.544,356.164 135.238 C 355.614 135.065,355.364 134.544,354.948 132.706 C 354.371 130.156,354.134 129.748,352.606 128.675 C 352.033 128.273,351.564 127.670,351.564 127.336 C 351.564 126.172,350.255 123.331,349.353 122.534 C 348.853 122.093,348.261 121.168,348.037 120.478 C 347.814 119.788,347.005 118.401,346.241 117.396 C 345.477 116.391,344.714 114.957,344.546 114.209 C 344.229 112.800,343.214 111.449,342.240 111.140 C 341.874 111.024,341.549 110.379,341.307 109.290 C 340.712 106.611,340.012 105.274,338.846 104.586 C 338.255 104.237,337.771 103.720,337.771 103.438 C 337.771 102.456,336.398 99.593,335.529 98.762 C 335.048 98.302,334.419 97.236,334.132 96.393 C 333.845 95.551,333.108 94.374,332.494 93.778 C 331.831 93.134,331.235 92.143,331.024 91.335 C 330.457 89.162,329.657 87.769,328.718 87.320 C 328.088 87.019,327.751 86.525,327.510 85.552 C 326.733 82.419,326.405 81.740,325.203 80.788 C 324.529 80.255,323.978 79.604,323.978 79.344 C 323.978 78.526,322.421 75.537,321.586 74.753 C 321.147 74.340,320.573 73.266,320.312 72.366 C 320.038 71.427,319.534 70.525,319.127 70.249 C 317.730 69.300,317.306 68.691,317.082 67.315 C 316.742 65.227,316.025 63.936,314.806 63.217 C 314.084 62.791,313.707 62.323,313.696 61.839 C 313.662 60.311,312.240 57.293,311.312 56.779 C 310.724 56.453,310.280 55.837,310.032 55.004 C 309.584 53.493,309.029 52.498,307.939 51.250 C 307.498 50.745,306.848 49.510,306.496 48.506 C 306.026 47.169,305.577 46.508,304.818 46.035 C 304.092 45.583,303.681 45.004,303.447 44.106 C 303.263 43.400,302.949 42.197,302.750 41.431 C 302.474 40.373,302.091 39.844,301.153 39.223 C 300.475 38.774,299.920 38.215,299.920 37.981 C 299.920 36.383,297.649 32.398,296.739 32.398 C 296.593 32.398,296.384 31.838,296.275 31.155 C 296.147 30.357,295.569 29.294,294.661 28.188 C 293.883 27.239,293.078 25.837,292.874 25.071 C 292.286 22.871,291.883 22.204,290.899 21.796 C 290.211 21.511,289.894 21.083,289.636 20.090 C 288.589 16.063,288.513 15.914,287.009 14.935 C 286.524 14.619,286.127 14.127,286.127 13.842 C 286.127 11.417,283.207 8.250,280.270 7.488 C 278.461 7.019,113.249 6.905,109.173 7.370 M203.689 65.612 C 209.430 66.116,212.381 66.641,214.513 67.537 C 215.176 67.816,217.523 68.452,219.730 68.951 C 221.936 69.450,225.256 70.498,227.107 71.280 C 228.958 72.062,230.978 72.899,231.596 73.140 C 232.213 73.380,233.224 73.881,233.841 74.252 C 234.459 74.622,235.613 75.200,236.407 75.535 C 239.505 76.841,249.280 82.907,251.853 85.119 C 252.497 85.673,254.070 86.993,255.347 88.051 C 258.296 90.495,264.749 96.792,266.307 98.747 C 271.688 105.497,274.331 109.152,275.735 111.788 C 276.205 112.670,277.025 114.027,277.557 114.803 C 278.089 115.578,278.994 117.345,279.569 118.728 C 280.144 120.111,281.051 121.955,281.586 122.824 C 283.330 125.658,283.631 128.273,282.373 129.662 C 281.860 130.230,280.939 130.255,262.160 130.218 C 237.230 130.168,239.370 129.418,238.170 138.621 C 237.771 141.682,237.001 146.207,236.459 148.677 C 235.917 151.147,234.950 156.199,234.311 159.904 C 233.672 163.609,232.951 167.506,232.709 168.565 C 232.466 169.623,231.967 172.559,231.600 175.088 C 231.232 177.618,230.439 181.692,229.838 184.142 C 229.236 186.592,228.368 191.234,227.909 194.459 C 227.450 197.683,226.638 202.149,226.105 204.383 C 224.566 210.834,225.201 211.387,234.148 211.387 C 243.148 211.387,242.915 211.648,244.888 199.358 C 246.545 189.037,246.276 189.258,257.167 189.245 C 271.747 189.228,277.524 188.355,282.798 185.372 C 285.634 183.768,286.621 184.274,286.524 187.284 C 286.431 190.181,283.895 197.722,281.169 203.208 C 280.380 204.796,279.388 206.889,278.965 207.859 C 278.542 208.829,277.707 210.377,277.109 211.299 C 276.512 212.220,275.156 214.345,274.098 216.020 C 268.125 225.473,258.698 235.346,249.862 241.403 C 248.813 242.122,247.631 243.003,247.233 243.360 C 246.836 243.716,245.646 244.485,244.587 245.068 C 243.528 245.651,242.365 246.394,242.002 246.719 C 241.390 247.267,232.511 251.804,232.052 251.804 C 231.939 251.804,230.383 252.442,228.594 253.221 C 226.805 254.000,224.114 254.944,222.614 255.319 C 221.115 255.694,218.661 256.440,217.161 256.977 C 207.025 260.605,177.002 260.696,168.217 257.126 C 167.144 256.690,164.762 255.955,162.924 255.492 C 159.575 254.649,156.311 253.343,150.922 250.692 C 149.334 249.910,147.076 248.846,145.903 248.327 C 144.731 247.808,143.143 246.927,142.375 246.369 C 141.607 245.810,139.445 244.315,137.572 243.046 C 129.344 237.471,117.887 226.556,114.004 220.592 C 113.408 219.675,112.478 218.276,111.939 217.482 C 107.415 210.821,107.129 209.438,108.719 201.895 C 109.237 199.441,109.823 196.229,110.022 194.757 C 110.782 189.133,109.937 189.461,124.283 189.223 C 131.522 189.102,136.446 188.886,137.450 188.644 C 146.757 186.404,150.760 183.980,156.463 177.131 C 158.215 175.028,161.427 168.838,162.164 166.147 C 163.161 162.506,164.775 160.154,165.665 161.046 C 166.677 162.061,165.663 172.224,163.743 180.301 C 161.539 189.571,161.628 189.674,171.707 189.514 L 178.016 189.415 178.987 188.443 C 180.162 187.268,181.182 183.468,182.171 176.584 C 182.869 171.723,183.832 166.778,184.596 164.134 C 184.861 163.219,185.513 159.439,186.047 155.734 C 187.891 142.912,188.196 142.576,197.777 142.807 C 211.184 143.130,213.005 146.224,209.162 162.149 C 208.651 164.266,207.862 168.308,207.408 171.131 C 206.954 173.953,206.429 177.201,206.241 178.348 C 206.053 179.495,205.618 181.350,205.275 182.472 C 203.417 188.542,204.503 189.363,214.172 189.195 C 222.126 189.057,222.338 188.846,223.889 179.528 C 224.394 176.497,225.239 172.285,225.767 170.168 C 226.295 168.051,226.893 165.020,227.096 163.432 C 227.563 159.778,229.158 150.139,229.868 146.682 C 231.469 138.892,225.270 131.522,216.432 130.706 C 215.334 130.605,209.858 130.489,204.263 130.450 C 189.767 130.347,190.424 131.284,193.480 115.063 C 194.707 108.550,194.189 107.981,186.904 107.835 C 177.324 107.643,176.917 107.921,175.753 115.453 C 175.414 117.645,174.635 121.686,174.021 124.434 C 173.408 127.182,172.679 130.874,172.403 132.638 C 172.126 134.403,171.691 136.756,171.435 137.868 C 171.180 138.981,170.398 143.331,169.697 147.535 C 167.601 160.107,166.127 162.697,165.520 154.873 C 165.017 148.386,164.737 147.299,162.288 142.340 C 159.719 137.136,154.422 132.622,148.984 131.001 C 146.195 130.169,107.760 129.908,105.669 130.706 C 104.009 131.340,103.649 132.103,103.253 135.833 C 103.084 137.428,102.528 140.249,102.018 142.101 C 100.867 146.283,100.575 147.780,99.747 153.757 C 98.854 160.204,97.137 164.306,95.865 163.034 C 94.561 161.730,96.308 142.687,98.180 137.804 C 98.525 136.904,99.245 134.651,99.780 132.799 C 100.315 130.946,101.097 128.765,101.519 127.951 C 101.940 127.138,102.783 125.022,103.392 123.250 C 104.000 121.479,104.932 119.398,105.462 118.628 C 105.992 117.857,106.665 116.653,106.958 115.951 C 107.250 115.249,108.039 113.809,108.710 112.751 C 109.381 111.692,110.322 110.176,110.801 109.383 C 116.056 100.667,126.761 89.549,136.167 83.037 C 137.225 82.304,138.383 81.442,138.740 81.122 C 139.576 80.370,144.398 77.664,147.823 76.024 C 149.294 75.319,150.885 74.467,151.357 74.131 C 152.747 73.141,160.962 70.036,164.582 69.131 C 166.420 68.672,168.789 68.020,169.848 67.682 C 177.114 65.361,191.083 64.506,203.689 65.612 M139.054 144.024 C 147.043 146.590,148.727 152.220,144.947 163.733 C 142.978 169.732,136.396 175.215,130.129 176.078 C 126.749 176.543,117.234 176.494,115.802 176.004 C 113.496 175.215,113.499 173.077,115.821 163.272 C 116.344 161.067,117.200 156.668,117.725 153.497 C 119.443 143.117,120.003 142.665,130.874 142.890 C 135.437 142.985,136.110 143.078,139.054 144.024 M270.417 143.074 C 281.006 144.366,285.410 151.030,281.856 160.385 C 279.028 167.832,277.223 170.422,272.782 173.408 C 269.007 175.945,268.211 176.131,260.228 176.337 C 249.580 176.612,248.749 175.986,250.527 169.021 C 250.885 167.620,251.464 164.634,251.814 162.386 C 252.786 156.143,254.868 146.196,255.430 145.109 C 256.309 143.411,256.756 143.237,260.753 143.043 C 267.155 142.733,267.632 142.734,270.417 143.074 " stroke="none" fill="#2a2c31" fill-rule="evenodd"></path></g></svg>