<?xml version="1.0" encoding="utf-8"?>
<!DOCTYPE svg PUBLIC "-//W3C//DTD SVG 20010904//EN" "http://www.w3.org/TR/2001/REC-SVG-20010904/DTD/svg10.dtd">
<svg version="1.0" xmlns="http://www.w3.org/2000/svg" width="255px" height="157px" viewBox="0 0 255 157" preserveAspectRatio="xMidYMid meet">
 <g fill="#272c2e">
  <path d="M0 78.5 l0 -78.5 127.5 0 127.5 0 0 78.5 0 78.5 -127.5 0 -127.5 0 0 -78.5z m174.3 55.4 c1.5 -1.6 2.7 -4 2.7 -5.2 0 -3.5 -5.6 -8.6 -10.1 -9.3 l-3.9 -0.7 0 -9.8 0 -9.9 -3.4 0 -3.4 0 -0.4 9.1 c-0.4 11 -1.2 11.9 -10.4 11.9 -5.6 0 -6.5 -0.3 -8.4 -2.7 -2 -2.6 -2.1 -3.4 -1.8 -34.1 l0.3 -31.4 2.4 -1.9 c3.2 -2.6 12 -2.6 15.2 0 2 1.6 2.5 3.1 2.9 9.3 l0.5 7.3 3.4 0.3 3.4 0.3 -0.5 -6.8 c-0.6 -8.6 -3.9 -14.1 -10.1 -16.9 -8.8 -4 -18.3 -0.8 -22.9 7.9 -2.2 4 -2.3 5.4 -2.6 29.7 -0.4 29 0.3 34.2 5.1 39.7 4.8 5.4 8.3 6.5 18.3 5.7 8.2 -0.7 8.4 -0.6 8.4 1.5 0 4.8 6.4 10.6 10.5 9.5 1.1 -0.3 3.2 -1.9 4.8 -3.5z m-120.9 -11.6 c0.3 -2.1 1.7 -11 3.1 -19.8 1.3 -8.8 3.8 -25 5.5 -36 1.7 -11 3.3 -21 3.5 -22.3 0.5 -2.1 0.3 -2.3 -2.7 -2 l-3.3 0.3 -2.1 15 c-1.2 8.3 -3.4 23.3 -4.8 33.5 -3.6 24.9 -3 23 -7 23 -3.2 0 -3.3 -0.1 -3.9 -4.7 -0.3 -2.7 -2.6 -18.7 -5.1 -35.8 -2.6 -17 -4.6 -31 -4.6 -31.2 0 -0.2 -1.6 -0.3 -3.5 -0.3 -2.5 0 -3.5 0.5 -3.5 1.5 0 1.3 3.3 23.3 8 53 0.5 3.3 1.6 10.7 2.5 16.5 0.9 5.8 1.8 11.1 2 11.8 0.3 0.8 2.8 1.2 7.9 1.2 l7.4 0 0.6 -3.7z m27.3 -4.3 c0.6 -4.1 1.2 -7.6 1.2 -7.7 0.1 -0.2 5.2 -0.3 11.5 -0.3 13 0 11.9 -0.8 13.2 10.3 l0.7 5.7 3.9 0 3.9 0 -0.7 -3.6 c-0.4 -2 -3.4 -20.8 -6.8 -41.8 l-6.1 -38.1 -7.5 0 -7.5 0 -2.2 14 c-4.4 28.1 -10.3 65.1 -10.8 67.3 -0.5 2.1 -0.3 2.3 2.7 2 3.3 -0.3 3.3 -0.3 4.5 -7.8z m136.3 -30.5 l0 -38.4 7.3 -0.3 7.2 -0.3 0.3 -3.2 0.3 -3.3 -17.5 0 -17.6 0 0 -3.7 c0 -2.1 0.7 -6 1.5 -8.8 1.4 -4.6 1.4 -5.1 -0.3 -7.5 -2.7 -3.5 -6.2 -3.7 -10.1 -0.4 -5.9 4.9 -5.7 4.1 -11.7 51.7 -1.9 15.9 -3.4 29 -3.2 29.2 0.2 0.2 2.9 -7.4 6.1 -16.8 3.2 -9.5 7.4 -21.6 9.4 -26.9 l3.5 -9.8 7.9 0 7.9 0 0 37.8 c0 20.8 0.3 38.2 0.7 38.5 0.3 0.4 2.4 0.7 4.5 0.7 l3.8 0 0 -38.5z"/>
  <path d="M84 99.1 c0 -2.7 1.3 -14 3 -25.2 1.6 -11.2 3 -20.5 3 -20.6 0 -0.2 1.5 -0.3 3.3 -0.3 l3.3 0 3.2 22.3 c1.8 12.2 3.2 23.7 3.2 25.5 l0 3.2 -9.5 0 -9.5 0 0 -4.9z"/>
 </g>
 <g fill="#ffffff">
  <path d="M156 130.6 c0 -1.2 -1.3 -1.4 -6.9 -0.9 -9.5 0.8 -13.5 -0.2 -18.2 -4.4 -6.5 -5.9 -7.1 -9.3 -6.7 -43.5 0.3 -28.2 0.4 -29.5 2.6 -33.5 1.2 -2.4 4.1 -5.5 6.4 -7 3.6 -2.4 5.2 -2.8 11.3 -2.8 9.1 0 14.4 2.3 18.2 7.9 2.4 3.6 2.8 5.2 3.1 13.9 l0.4 9.8 -6.3 -0.3 -6.4 -0.3 -0.5 -7.3 c-0.4 -6.2 -0.9 -7.7 -2.9 -9.3 -3 -2.4 -6.2 -2.4 -9.2 0 l-2.4 1.9 -0.3 28.4 c-0.3 27.7 -0.2 28.5 1.8 31.1 2.4 3.1 7.3 3.7 10.6 1.3 1.6 -1.2 2 -2.9 2.2 -10.5 l0.4 -9.1 6.4 0 6.4 0 0 10 c0 8.2 0.3 10 1.5 10 2.1 0 1.8 1.7 -0.9 7 -3 5.9 -10.6 11.3 -10.6 7.6z"/>
  <path d="M34.5 127.8 c-0.4 -1.5 -2 -11.2 -3.5 -21.3 -0.5 -3.8 -3 -20 -5.5 -35.9 -2.5 -15.8 -4.5 -29.5 -4.5 -30.2 0 -1.1 1.7 -1.4 7 -1.4 3.9 0 7 0.1 7 0.3 0 0.5 9 61.8 9.9 67.2 1 6.4 1.2 5.5 4.7 -18.5 1.4 -10.2 3.6 -25.2 4.8 -33.5 l2.1 -15 6.3 -0.3 c6 -0.3 6.2 -0.2 6.2 2.2 0 2.3 -1.3 11 -9.5 64.1 -1.4 8.8 -2.8 17.7 -3.1 19.8 l-0.6 3.7 -10.4 0 c-7.5 0 -10.6 -0.4 -10.9 -1.2z"/>
  <path d="M69.5 126.8 c0.5 -2.3 7.6 -46.1 11.8 -73.3 l2.2 -14 10.5 0 10.4 0 6.7 41 c3.6 22.6 6.9 42.7 7.3 44.8 l0.7 3.7 -7.4 0 -7.4 0 -0.7 -5.7 c-1.3 -10.9 -0.7 -10.3 -10.2 -10.3 -4.6 0 -8.4 0.1 -8.5 0.3 0 0.1 -0.6 3.6 -1.2 7.7 l-1.2 7.5 -6.8 0.3 c-6.6 0.3 -6.7 0.2 -6.2 -2z m30.2 -29 c-0.2 -1.8 -1.7 -12 -3.3 -22.5 -1.5 -10.6 -2.9 -19.1 -3.1 -18.9 -0.4 0.4 -6.3 40.2 -6.3 42.7 0 1.7 0.8 1.9 6.6 1.9 l6.7 0 -0.6 -3.2z"/>
  <path d="M205.7 128.3 c-0.4 -0.3 -0.7 -17.7 -0.7 -38.5 l0 -37.8 -4.9 0 c-3.4 0 -5.1 0.4 -5.5 1.5 -0.9 2.5 -2.6 1.7 -2.6 -1.2 0 -1.5 1 -5.7 2.2 -9.5 1.6 -5.1 2.7 -6.8 4 -6.8 1 0 1.8 0.7 1.8 1.5 0 1.3 2.6 1.5 17.5 1.5 l17.6 0 -0.3 6.3 -0.3 6.2 -7.2 0.3 -7.3 0.3 0 38.4 0 38.5 -6.8 0 c-3.8 0 -7.2 -0.3 -7.5 -0.7z"/>
 </g>
 <g fill="#f26534">
  <path d="M161.5 139.2 c-3.1 -1.9 -5.1 -5.1 -5.7 -8.7 -0.2 -1.3 0.7 -2.7 2.6 -4 1.7 -1.1 3.9 -3.9 5.1 -6.3 2.1 -4.4 3.9 -5.1 8.8 -3.3 3.4 1.3 7.5 5.9 8.2 9.3 0.8 3.7 -1 8.9 -4 11.8 -3.4 3.2 -10.9 3.8 -15 1.2z"/>
  <path d="M169.1 103.8 c0.5 -2.9 2.6 -19.5 4.8 -36.8 5.4 -42.5 5.1 -40.7 7.5 -44.2 3.4 -5.1 7.2 -7.3 12.3 -7.3 5.7 0 9.3 3.6 9.3 9.4 0 2 -3.2 12.9 -7 24.1 -3.9 11.3 -10.1 29.4 -13.8 40.2 l-6.7 19.8 -3.6 0 -3.6 0 0.8 -5.2z"/>
 </g>
</svg>