<svg id="svg" version="1.1" xmlns="http://www.w3.org/2000/svg" xmlns:xlink="http://www.w3.org/1999/xlink" width="400" height="380.4878048780488" viewBox="0, 0, 400,380.4878048780488"><g id="svgg"><path id="path0" d="M168.155 51.665 C 179.945 51.721,199.127 51.721,210.781 51.665 C 222.435 51.609,212.788 51.563,189.343 51.563 C 165.899 51.563,156.364 51.609,168.155 51.665 M285.918 51.642 C 286.284 51.738,286.884 51.738,287.250 51.642 C 287.617 51.546,287.317 51.468,286.584 51.468 C 285.852 51.468,285.552 51.546,285.918 51.642 M274.786 52.141 C 274.786 52.372,276.499 52.521,279.163 52.521 C 281.827 52.521,283.539 52.372,283.539 52.141 C 283.539 51.909,281.827 51.760,279.163 51.760 C 276.499 51.760,274.786 51.909,274.786 52.141 M150.365 52.278 C 150.777 52.635,160.990 52.866,160.990 52.519 C 160.990 52.286,158.911 52.141,155.598 52.141 C 152.632 52.141,150.278 52.203,150.365 52.278 M290.200 52.586 C 290.618 52.819,291.226 53.199,291.551 53.431 C 291.875 53.663,291.737 53.468,291.244 52.997 C 290.751 52.526,290.143 52.146,289.893 52.152 C 289.643 52.159,289.781 52.354,290.200 52.586 M244.434 52.805 C 246.265 52.875,249.263 52.875,251.094 52.805 C 252.926 52.735,251.427 52.678,247.764 52.678 C 244.101 52.678,242.602 52.735,244.434 52.805 M176.594 112.311 C 175.442 112.491,172.788 112.913,170.695 113.249 C 166.274 113.956,156.017 117.199,154.280 118.438 C 152.251 119.884,151.118 122.190,149.785 127.586 C 149.098 130.363,148.007 134.348,147.358 136.441 C 146.710 138.535,145.233 143.587,144.075 147.669 C 142.918 151.751,141.551 156.546,141.038 158.325 C 136.521 173.987,136.617 174.294,145.195 171.644 C 163.431 166.011,176.705 166.818,193.008 174.551 C 198.561 177.185,199.681 177.350,200.761 175.691 C 201.208 175.003,204.635 163.799,207.468 153.758 C 207.912 152.188,209.013 148.506,209.916 145.576 C 210.818 142.645,211.904 138.877,212.328 137.203 C 212.752 135.528,213.791 131.994,214.637 129.349 C 216.791 122.615,216.659 122.020,212.463 119.546 C 202.004 113.379,187.907 110.536,176.594 112.311 M231.984 135.251 C 231.124 136.110,228.674 143.119,227.576 147.859 C 227.333 148.906,226.480 151.817,225.680 154.329 C 224.880 156.841,223.511 161.551,222.639 164.795 C 221.766 168.040,220.482 172.493,219.785 174.691 C 215.282 188.896,215.361 189.874,221.247 192.833 C 237.740 201.123,254.671 202.369,272.873 196.632 C 282.627 193.558,283.700 192.551,285.795 184.495 C 286.463 181.929,287.507 178.287,288.116 176.403 C 288.725 174.520,289.749 171.009,290.392 168.601 C 291.754 163.496,295.579 150.634,297.322 145.294 C 299.436 138.819,298.472 138.260,289.533 140.777 C 272.258 145.641,254.808 144.202,239.061 136.616 C 233.786 134.075,233.261 133.973,231.984 135.251 M346.935 147.324 C 347.548 148.077,348.126 148.628,348.220 148.549 C 348.314 148.470,347.813 147.855,347.106 147.181 L 345.821 145.956 346.935 147.324 M62.724 160.514 C 62.053 161.295,61.551 162.131,61.752 162.131 C 61.829 162.131,62.273 161.618,62.737 160.990 C 63.655 159.749,63.646 159.440,62.724 160.514 M158.516 187.653 C 151.289 188.396,138.052 191.791,133.926 193.959 C 130.688 195.660,130.497 195.993,128.149 203.996 C 127.197 207.241,125.437 213.235,124.239 217.317 C 123.040 221.399,121.567 226.537,120.965 228.735 C 120.363 230.932,119.204 234.872,118.390 237.488 C 114.986 248.426,115.492 250.473,121.140 248.591 C 140.540 242.125,156.838 243.336,173.549 252.485 C 178.370 255.124,179.353 253.707,183.632 237.954 C 184.387 235.174,185.669 230.807,186.482 228.248 C 187.295 225.690,188.239 222.483,188.581 221.123 C 188.923 219.762,189.864 216.508,190.672 213.892 C 196.152 196.141,196.390 197.572,187.236 193.184 C 177.327 188.436,168.132 186.665,158.516 187.653 M210.461 210.588 C 209.235 211.199,208.750 212.264,207.623 216.818 C 207.113 218.878,206.442 221.172,206.132 221.915 C 205.821 222.658,204.609 226.766,203.438 231.043 C 202.268 235.320,200.805 240.362,200.188 242.245 C 199.571 244.129,198.796 246.870,198.465 248.335 C 198.135 249.800,197.189 253.090,196.364 255.645 C 193.763 263.691,194.194 265.259,199.699 267.771 C 218.480 276.340,226.307 277.455,243.321 273.987 C 257.019 271.195,261.406 268.711,263.178 262.744 C 263.729 260.889,264.602 258.112,265.119 256.572 C 265.636 255.032,266.402 252.291,266.823 250.482 C 267.244 248.673,268.256 245.052,269.074 242.436 C 269.891 239.819,271.172 235.452,271.920 232.731 C 272.668 230.010,273.985 225.608,274.848 222.949 C 277.341 215.262,276.660 214.586,268.357 216.494 C 248.659 221.022,232.077 219.744,217.507 212.576 C 212.678 210.199,211.760 209.940,210.461 210.588 " stroke="none" fill="#f6f7f8" fill-rule="evenodd"></path><path id="path1" d="M126.356 51.362 C 122.702 51.684,121.868 52.158,119.278 55.387 C 117.016 58.207,116.304 59.558,116.631 60.409 C 116.742 60.698,116.662 60.829,116.453 60.700 C 116.245 60.571,115.959 60.776,115.817 61.156 C 115.676 61.535,115.048 62.490,114.421 63.277 C 113.689 64.197,113.272 65.169,113.254 65.998 C 113.238 66.708,113.097 67.210,112.940 67.114 C 112.783 67.018,112.655 67.095,112.655 67.286 C 112.655 67.476,112.148 68.162,111.530 68.809 C 110.868 69.502,110.147 70.896,109.779 72.196 C 109.435 73.411,108.897 74.608,108.583 74.856 C 108.268 75.103,108.123 75.487,108.259 75.708 C 108.405 75.944,108.285 76.024,107.967 75.902 C 107.437 75.698,106.185 78.103,106.185 79.325 C 106.185 79.615,105.585 80.569,104.853 81.446 C 104.120 82.323,103.520 83.249,103.520 83.503 C 103.520 83.757,102.915 84.971,102.174 86.200 C 101.434 87.430,100.918 88.670,101.028 88.957 C 101.138 89.244,101.079 89.386,100.896 89.273 C 100.714 89.160,100.339 89.622,100.065 90.300 C 99.790 90.977,99.107 92.131,98.545 92.864 C 97.984 93.597,97.329 94.788,97.090 95.511 C 96.851 96.234,96.075 97.690,95.366 98.746 C 94.657 99.802,93.865 101.351,93.606 102.188 C 93.347 103.026,92.665 104.252,92.090 104.913 C 91.516 105.574,90.745 107.030,90.377 108.148 C 90.009 109.266,89.221 110.742,88.625 111.428 C 88.029 112.113,87.348 113.444,87.111 114.384 C 86.875 115.324,86.182 116.721,85.572 117.488 C 84.962 118.256,84.549 119.107,84.654 119.380 C 84.758 119.653,84.669 119.836,84.455 119.786 C 84.241 119.736,83.834 120.354,83.550 121.159 C 83.266 121.964,82.693 122.991,82.278 123.442 C 81.862 123.893,81.012 125.290,80.389 126.546 C 78.261 130.832,76.045 134.919,75.745 135.109 C 75.580 135.214,74.939 136.413,74.320 137.774 C 73.701 139.134,72.750 140.898,72.206 141.693 C 71.662 142.489,71.015 143.773,70.767 144.548 C 70.520 145.322,69.953 146.384,69.507 146.908 C 68.381 148.229,67.869 149.221,67.387 151.009 C 67.159 151.855,66.472 153.084,65.859 153.740 C 65.246 154.396,64.476 155.859,64.147 156.990 C 63.818 158.122,63.373 159.157,63.158 159.290 C 62.565 159.655,60.894 162.423,60.894 163.037 C 60.894 163.334,60.275 164.494,59.517 165.614 C 58.760 166.734,57.925 168.253,57.662 168.990 C 57.399 169.727,56.777 170.930,56.280 171.664 C 55.783 172.397,55.036 173.764,54.620 174.700 C 54.204 175.637,53.573 176.723,53.219 177.113 C 52.865 177.503,52.190 178.787,51.719 179.967 C 51.248 181.147,50.479 182.581,50.009 183.153 C 49.539 183.725,48.790 185.169,48.345 186.360 C 47.899 187.552,47.045 189.085,46.447 189.766 C 45.849 190.447,45.083 191.953,44.746 193.114 C 44.398 194.310,43.826 195.389,43.425 195.603 C 40.925 196.941,41.005 202.151,43.572 205.201 C 44.099 205.827,44.529 206.674,44.529 207.085 C 44.529 208.033,45.799 210.544,46.626 211.230 C 46.972 211.518,47.759 212.750,48.374 213.969 C 49.646 216.488,50.612 217.746,51.063 217.468 C 51.232 217.363,51.277 217.523,51.161 217.824 C 50.886 218.541,51.784 220.642,52.977 222.074 C 53.500 222.702,54.045 223.694,54.187 224.278 C 54.330 224.862,54.583 225.256,54.749 225.153 C 54.916 225.051,55.039 225.258,55.023 225.614 C 55.008 225.970,55.167 226.318,55.376 226.388 C 56.079 226.624,56.701 227.296,56.507 227.610 C 56.401 227.781,56.484 228.025,56.691 228.153 C 56.898 228.281,57.252 229.107,57.477 229.988 C 58.159 232.663,58.686 233.735,59.217 233.531 C 59.531 233.411,59.636 233.543,59.502 233.892 C 59.386 234.195,59.468 234.443,59.685 234.443 C 59.901 234.443,60.445 235.428,60.892 236.632 C 61.832 239.161,62.647 240.533,63.209 240.533 C 63.426 240.533,63.481 240.335,63.332 240.093 C 63.162 239.819,63.228 239.757,63.506 239.929 C 63.751 240.081,63.864 240.346,63.758 240.518 C 63.383 241.125,65.286 244.892,69.040 250.975 C 69.677 252.008,70.564 253.635,71.011 254.590 C 71.458 255.546,72.183 256.647,72.623 257.038 C 73.063 257.429,73.705 258.601,74.051 259.642 C 74.397 260.683,75.170 262.093,75.768 262.774 C 76.367 263.456,77.217 264.853,77.656 265.879 C 78.096 266.905,78.835 268.258,79.298 268.886 C 79.761 269.515,80.359 270.531,80.627 271.146 C 80.895 271.761,81.621 272.904,82.242 273.687 C 82.862 274.471,83.553 275.638,83.777 276.280 C 84.001 276.923,84.327 277.361,84.502 277.253 C 84.676 277.145,84.943 277.258,85.094 277.503 C 85.266 277.781,85.205 277.846,84.930 277.677 C 84.013 277.110,84.536 278.493,85.639 279.549 C 86.270 280.154,86.968 281.342,87.191 282.189 C 87.413 283.037,88.107 284.376,88.733 285.167 C 89.358 285.957,90.206 287.362,90.616 288.290 C 91.027 289.217,91.751 290.454,92.225 291.039 C 92.700 291.624,93.404 292.826,93.790 293.709 C 94.176 294.592,94.796 295.591,95.168 295.927 C 95.540 296.264,96.228 297.511,96.696 298.698 C 97.164 299.885,98.013 301.370,98.582 301.998 C 99.151 302.626,99.923 303.964,100.297 304.972 C 100.672 305.980,101.465 307.416,102.059 308.164 C 102.654 308.912,103.140 309.682,103.140 309.875 C 103.140 310.068,103.299 310.127,103.494 310.007 C 103.689 309.886,103.972 309.988,104.124 310.233 C 104.296 310.512,104.234 310.577,103.960 310.407 C 103.093 309.871,104.181 312.390,105.424 313.796 C 105.794 314.215,106.220 314.986,106.371 315.509 C 106.801 317.005,107.700 318.222,108.163 317.936 C 108.403 317.788,108.480 317.847,108.341 318.071 C 108.206 318.289,108.350 318.678,108.660 318.936 C 108.970 319.193,109.414 320.110,109.647 320.973 C 110.047 322.462,111.162 324.382,112.108 325.214 C 112.346 325.423,112.926 326.573,113.397 327.768 C 113.868 328.964,114.506 330.152,114.816 330.408 C 115.125 330.665,115.799 331.706,116.313 332.721 C 116.884 333.846,117.415 334.464,117.675 334.304 C 117.942 334.139,117.994 334.213,117.814 334.504 C 117.657 334.759,117.788 335.256,118.107 335.609 C 118.425 335.962,119.149 337.320,119.714 338.625 C 120.655 340.798,120.924 341.088,122.883 342.051 L 125.024 343.102 196.765 343.346 C 242.184 343.501,269.763 343.735,271.931 343.985 C 282.116 345.158,289.362 344.392,292.640 341.796 C 294.826 340.065,297.799 335.581,296.040 336.668 C 295.766 336.838,295.704 336.772,295.876 336.494 C 296.028 336.249,296.282 336.129,296.441 336.227 C 296.599 336.325,297.028 335.729,297.393 334.901 C 297.758 334.074,298.196 333.397,298.366 333.397 C 298.536 333.397,299.062 332.412,299.535 331.208 C 300.008 330.005,300.992 328.130,301.722 327.042 C 302.584 325.756,302.977 324.790,302.844 324.282 C 302.732 323.852,302.783 323.589,302.958 323.697 C 303.132 323.805,303.398 323.508,303.547 323.037 C 303.697 322.566,304.304 321.576,304.898 320.838 C 305.491 320.100,306.215 318.702,306.507 317.731 C 306.799 316.761,307.561 315.307,308.200 314.501 C 308.838 313.695,309.563 312.267,309.809 311.329 C 310.056 310.390,310.735 309.079,311.319 308.414 C 311.903 307.749,312.681 306.291,313.048 305.173 C 313.416 304.055,314.190 302.595,314.768 301.929 C 315.347 301.263,316.089 299.795,316.417 298.666 C 316.745 297.537,317.360 296.300,317.784 295.917 C 318.841 294.959,318.762 294.283,317.697 295.184 L 316.841 295.909 317.552 295.067 C 317.944 294.605,318.449 294.262,318.676 294.306 C 318.903 294.350,319.375 293.516,319.726 292.453 C 320.077 291.389,320.984 289.706,321.742 288.713 C 322.500 287.719,323.121 286.534,323.122 286.079 C 323.122 285.624,323.811 284.238,324.653 282.999 C 325.495 281.760,326.293 280.310,326.427 279.776 C 326.561 279.242,327.308 277.819,328.087 276.613 C 328.867 275.408,329.619 273.966,329.758 273.410 C 329.898 272.853,330.460 271.812,331.007 271.094 C 331.564 270.363,332.001 269.293,332.001 268.658 C 332.001 268.033,332.125 267.725,332.277 267.971 C 332.455 268.258,332.653 268.095,332.836 267.510 C 332.993 267.011,333.581 265.918,334.145 265.081 C 334.708 264.244,335.470 262.788,335.837 261.846 C 336.205 260.904,336.916 259.592,337.417 258.931 C 337.919 258.270,338.607 256.900,338.945 255.887 C 339.284 254.873,339.990 253.587,340.516 253.029 C 341.041 252.471,341.785 251.060,342.170 249.893 C 342.555 248.725,343.376 247.127,343.994 246.340 C 345.071 244.967,346.484 241.079,346.119 240.489 C 346.023 240.333,346.144 240.081,346.389 239.929 C 346.668 239.757,346.733 239.819,346.563 240.093 C 346.414 240.335,346.464 240.533,346.673 240.533 C 347.308 240.533,348.231 238.940,348.877 236.727 C 349.214 235.576,349.826 234.397,350.238 234.108 C 351.064 233.527,352.405 230.845,352.418 229.747 C 352.422 229.361,352.992 228.385,353.682 227.578 C 354.373 226.771,355.237 225.165,355.601 224.010 C 355.965 222.855,356.434 221.804,356.644 221.675 C 357.268 221.289,358.896 218.523,358.896 217.848 C 358.896 217.504,359.584 216.193,360.424 214.934 C 361.265 213.675,362.061 212.198,362.193 211.651 C 362.325 211.104,362.731 210.228,363.096 209.705 C 363.461 209.182,364.320 207.640,365.005 206.280 C 365.690 204.919,366.555 203.411,366.927 202.928 C 367.299 202.445,367.898 201.161,368.258 200.074 C 368.618 198.987,369.385 197.498,369.962 196.765 C 372.461 193.593,372.463 187.391,369.967 185.642 C 369.473 185.296,368.934 184.213,368.580 182.855 C 367.963 180.484,367.398 179.514,366.836 179.861 C 366.645 179.979,366.532 179.934,366.583 179.762 C 366.728 179.278,365.322 177.337,364.980 177.549 C 364.813 177.652,364.757 177.429,364.855 177.053 C 364.956 176.665,364.477 175.550,363.752 174.483 C 363.046 173.446,362.252 172.061,361.987 171.405 C 361.722 170.750,361.004 169.733,360.391 169.146 C 359.778 168.559,359.277 167.843,359.277 167.556 C 359.277 167.269,359.130 167.125,358.951 167.235 C 358.772 167.346,358.702 167.036,358.796 166.545 C 359.014 165.407,358.011 163.459,356.799 162.664 C 356.235 162.295,355.693 161.418,355.445 160.472 C 355.218 159.606,354.557 158.297,353.978 157.564 C 353.399 156.832,352.634 155.670,352.279 154.983 C 351.923 154.296,351.471 153.834,351.273 153.956 C 351.072 154.080,351.017 153.907,351.148 153.565 C 351.292 153.191,351.011 152.552,350.428 151.928 C 349.903 151.365,349.272 150.272,349.025 149.500 C 348.517 147.909,347.252 146.147,346.619 146.147 C 346.385 146.147,346.655 146.627,347.217 147.214 C 347.780 147.801,348.240 148.414,348.240 148.575 C 348.240 149.273,346.193 146.360,346.106 145.538 C 345.900 143.609,344.876 140.818,344.374 140.818 C 344.183 140.818,344.213 141.204,344.441 141.675 C 344.829 142.474,344.819 142.484,344.291 141.828 C 343.980 141.441,343.829 140.855,343.955 140.525 C 344.133 140.061,344.022 139.988,343.465 140.201 C 343.069 140.353,342.863 140.359,343.009 140.214 C 343.268 139.955,341.407 136.233,340.457 135.109 C 340.192 134.795,339.545 133.597,339.020 132.445 C 338.496 131.294,337.700 129.940,337.252 129.436 C 336.805 128.932,336.259 127.852,336.039 127.036 C 335.819 126.219,335.038 124.886,334.303 124.072 C 333.568 123.259,332.787 121.941,332.567 121.144 C 332.347 120.348,331.697 119.096,331.122 118.363 C 330.546 117.631,329.812 116.518,329.489 115.890 C 329.166 115.262,328.462 114.337,327.925 113.835 C 327.385 113.331,326.675 111.982,326.337 110.820 C 325.968 109.550,325.290 108.311,324.625 107.690 C 323.987 107.094,323.322 105.907,323.044 104.866 C 322.780 103.879,322.014 102.428,321.342 101.643 C 320.670 100.858,319.681 99.289,319.145 98.157 C 318.609 97.025,317.785 95.548,317.315 94.874 C 316.845 94.201,316.118 93.099,315.699 92.427 C 315.281 91.755,314.681 91.126,314.367 91.031 C 314.016 90.923,314.162 91.279,314.748 91.955 L 315.699 93.054 314.664 92.143 C 314.095 91.641,313.698 91.119,313.783 90.983 C 314.437 89.925,310.421 82.855,309.620 83.656 C 309.488 83.788,309.490 83.609,309.624 83.258 C 309.962 82.380,309.177 80.166,308.222 79.304 C 307.789 78.912,307.005 77.735,306.481 76.689 C 305.956 75.642,305.288 74.514,304.997 74.182 C 304.706 73.851,303.964 72.539,303.348 71.269 C 302.733 69.998,301.885 68.718,301.465 68.423 C 301.045 68.129,300.485 67.081,300.221 66.093 C 299.721 64.223,297.176 60.727,296.656 61.196 C 296.492 61.344,296.479 61.253,296.629 60.994 C 296.944 60.446,295.774 57.707,294.634 56.327 C 294.202 55.804,293.453 54.776,292.971 54.044 C 290.903 50.906,299.243 51.194,209.134 51.149 C 165.176 51.128,127.926 51.223,126.356 51.362 M210.781 51.665 C 199.127 51.721,179.945 51.721,168.155 51.665 C 156.364 51.609,165.899 51.563,189.343 51.563 C 212.788 51.563,222.435 51.609,210.781 51.665 M287.250 51.642 C 286.884 51.738,286.284 51.738,285.918 51.642 C 285.552 51.546,285.852 51.468,286.584 51.468 C 287.317 51.468,287.617 51.546,287.250 51.642 M283.539 52.141 C 283.539 52.372,281.827 52.521,279.163 52.521 C 276.499 52.521,274.786 52.372,274.786 52.141 C 274.786 51.909,276.499 51.760,279.163 51.760 C 281.827 51.760,283.539 51.909,283.539 52.141 M160.990 52.519 C 160.990 52.866,150.777 52.635,150.365 52.278 C 150.278 52.203,152.632 52.141,155.598 52.141 C 158.911 52.141,160.990 52.286,160.990 52.519 M291.244 52.997 C 291.737 53.468,291.875 53.663,291.551 53.431 C 291.226 53.199,290.618 52.819,290.200 52.586 C 289.781 52.354,289.643 52.159,289.893 52.152 C 290.143 52.146,290.751 52.526,291.244 52.997 M251.094 52.805 C 249.263 52.875,246.265 52.875,244.434 52.805 C 242.602 52.735,244.101 52.678,247.764 52.678 C 251.427 52.678,252.926 52.735,251.094 52.805 M192.530 112.486 C 203.892 114.152,216.175 120.085,216.175 123.907 C 216.175 124.256,215.483 126.705,214.637 129.349 C 213.791 131.994,212.752 135.528,212.328 137.203 C 211.904 138.877,210.818 142.645,209.916 145.576 C 209.013 148.506,207.912 152.188,207.468 153.758 C 204.635 163.799,201.208 175.003,200.761 175.691 C 199.681 177.350,198.561 177.185,193.008 174.551 C 176.705 166.818,163.431 166.011,145.195 171.644 C 136.617 174.294,136.521 173.987,141.038 158.325 C 141.551 156.546,142.918 151.751,144.075 147.669 C 145.233 143.587,146.710 138.535,147.358 136.441 C 148.007 134.348,149.098 130.363,149.785 127.586 C 151.118 122.190,152.251 119.884,154.280 118.438 C 156.017 117.199,166.274 113.956,170.695 113.249 C 172.788 112.913,175.442 112.491,176.594 112.311 C 180.069 111.766,188.226 111.856,192.530 112.486 M239.061 136.616 C 247.050 140.465,252.239 142.070,259.372 142.900 C 269.711 144.103,280.392 143.351,289.533 140.777 C 298.472 138.260,299.436 138.819,297.322 145.294 C 295.579 150.634,291.754 163.496,290.392 168.601 C 289.749 171.009,288.725 174.520,288.116 176.403 C 287.507 178.287,286.463 181.929,285.795 184.495 C 283.700 192.551,282.627 193.558,272.873 196.632 C 254.671 202.369,237.740 201.123,221.247 192.833 C 215.361 189.874,215.282 188.896,219.785 174.691 C 220.482 172.493,221.766 168.040,222.639 164.795 C 223.511 161.551,224.880 156.841,225.680 154.329 C 226.480 151.817,227.333 148.906,227.576 147.859 C 228.674 143.119,231.124 136.110,231.984 135.251 C 233.261 133.973,233.786 134.075,239.061 136.616 M62.737 160.990 C 61.885 162.142,61.382 162.534,61.881 161.656 C 62.236 161.033,63.256 159.848,63.439 159.848 C 63.517 159.848,63.201 160.362,62.737 160.990 M172.614 188.191 C 182.131 189.997,193.557 195.432,194.508 198.605 C 194.972 200.154,195.226 199.142,190.672 213.892 C 189.864 216.508,188.923 219.762,188.581 221.123 C 188.239 222.483,187.295 225.690,186.482 228.248 C 185.669 230.807,184.387 235.174,183.632 237.954 C 179.353 253.707,178.370 255.124,173.549 252.485 C 156.838 243.336,140.540 242.125,121.140 248.591 C 115.492 250.473,114.986 248.426,118.390 237.488 C 119.204 234.872,120.363 230.932,120.965 228.735 C 121.567 226.537,123.040 221.399,124.239 217.317 C 125.437 213.235,127.197 207.241,128.149 203.996 C 130.976 194.360,131.461 193.927,142.831 190.893 C 156.465 187.255,164.050 186.567,172.614 188.191 M217.507 212.576 C 232.077 219.744,248.659 221.022,268.357 216.494 C 276.660 214.586,277.341 215.262,274.848 222.949 C 273.985 225.608,272.668 230.010,271.920 232.731 C 271.172 235.452,269.891 239.819,269.074 242.436 C 268.256 245.052,267.244 248.673,266.823 250.482 C 266.402 252.291,265.636 255.032,265.119 256.572 C 264.602 258.112,263.729 260.889,263.178 262.744 C 261.406 268.711,257.019 271.195,243.321 273.987 C 226.307 277.455,218.480 276.340,199.699 267.771 C 194.194 265.259,193.763 263.691,196.364 255.645 C 197.189 253.090,198.135 249.800,198.465 248.335 C 198.796 246.870,199.571 244.129,200.188 242.245 C 200.805 240.362,202.268 235.320,203.438 231.043 C 204.609 226.766,205.821 222.658,206.132 221.915 C 206.442 221.172,207.113 218.878,207.623 216.818 C 209.510 209.191,210.107 208.935,217.507 212.576 " stroke="none" fill="#292b30" fill-rule="evenodd"></path></g></svg>